<svg width="334" height="94" viewBox="0 0 334 94" fill="none" xmlns="http://www.w3.org/2000/svg">
<path d="M101.006 16.0947H63.5469V78.9731H101.006V16.0947Z" fill="white"/>
<path d="M50.1704 16.0947H12.7109V78.9731H50.1704V16.0947Z" fill="white"/>
<path d="M0.121215 46.7209C0.121215 34.0198 0.121215 21.4408 0.121215 8.73966C0.121215 7.88478 0.363645 7.5184 1.21215 7.39628C6.18198 6.90777 11.0306 6.29714 16.0004 5.68651C20.1218 5.198 24.2431 4.7095 28.3644 4.22099C34.6676 3.48823 41.092 2.75548 47.5164 2.02272C52.6075 1.41209 57.6985 0.923582 62.7896 0.312951C65.4563 0.0686979 65.4563 0.068698 65.4563 2.75548C65.4563 5.80863 65.4563 8.86179 65.4563 11.7928C65.4563 13.6247 65.6987 13.869 67.517 13.869C78.1839 13.869 88.8509 13.869 99.639 13.869C101.578 13.869 101.578 13.869 101.578 15.823C101.578 36.8287 101.578 57.8344 101.578 78.8402C101.578 80.4278 101.578 80.4278 99.8815 80.4278C89.2145 80.4278 78.5476 80.4278 67.7594 80.4278C65.6987 80.4278 65.5775 80.5499 65.5775 82.6261C65.5775 85.8014 65.5775 88.9766 65.5775 92.0298C65.5775 93.3732 65.3351 93.6174 64.0017 93.3732C59.638 92.7625 55.3954 92.1519 51.0317 91.6634C47.1528 91.1749 43.1527 90.6864 39.2738 90.32C35.0312 89.8315 30.9099 89.343 26.6674 88.8545C23.0309 88.4881 19.3945 88.1217 15.758 87.7554C12.97 87.389 10.1821 87.0226 7.39414 86.7784C5.45469 86.5341 3.63646 86.412 1.69702 86.1677C0.242431 86.0456 0 85.8014 0 84.3358C0.121215 71.879 0.121215 59.2999 0.121215 46.7209ZM99.1542 47.4537C99.1542 37.6836 99.1542 27.9135 99.1542 18.1434C99.1542 16.4336 99.033 16.3115 97.336 16.3115C87.2751 16.3115 77.2142 16.3115 67.1533 16.3115C65.5775 16.3115 65.4563 16.4336 65.4563 18.0213C65.4563 31.2109 65.4563 44.4005 65.4563 57.468C65.4563 59.4221 65.5775 59.5442 67.517 59.5442C74.305 59.5442 81.0931 59.5442 88.0024 59.5442C88.7297 59.5442 89.457 59.5442 89.3357 60.6433C89.2145 61.4982 89.5782 62.4752 88.0024 62.4752C83.0325 62.3531 77.9415 62.4752 72.9717 62.4752C70.911 62.4752 68.9716 62.4752 66.9109 62.4752C65.9412 62.4752 65.4563 62.8416 65.5775 63.8186C65.5775 64.6735 65.5775 65.5284 65.5775 66.5054C65.5775 67.3603 66.0624 67.8488 66.9109 67.8488C67.2745 67.8488 67.7594 67.8488 68.1231 67.8488C74.7899 67.8488 81.3355 67.8488 88.0024 67.8488C88.4872 67.8488 89.2145 67.9709 89.2145 68.2152C89.3357 68.8258 89.457 69.6807 89.2145 70.2913C89.0933 70.5356 88.2448 70.7798 87.7599 70.7798C80.9719 70.7798 74.1838 70.7798 67.3958 70.7798C65.82 70.7798 65.5775 71.0241 65.5775 72.6117C65.5775 73.833 65.5775 75.0542 65.5775 76.2755C65.5775 78.4738 65.6987 78.718 67.8806 78.718C77.5779 78.718 87.1539 78.718 96.8511 78.718C99.033 78.718 99.1542 78.5959 99.1542 76.2755C99.1542 66.5054 99.1542 56.9795 99.1542 47.4537ZM20.4854 48.4307C20.6066 48.4307 20.6066 48.4307 20.4854 48.4307C20.4854 56.0025 20.4854 63.6965 20.4854 71.2683C20.4854 72.856 20.849 73.2223 22.4248 73.3445C23.2734 73.4666 24.1219 73.5887 24.9704 73.5887C26.9098 73.7108 27.1523 73.4666 27.1523 71.6347C27.1523 65.8948 27.1523 60.1548 27.1523 54.4149C27.1523 52.9494 27.1522 52.8273 28.728 52.8273C32.2433 52.8273 35.7585 52.9494 39.2738 53.0715C40.7284 53.0715 41.092 52.7051 41.092 51.2396C41.092 50.0183 41.092 48.7971 41.092 47.6979C41.092 45.8661 40.7284 45.4997 38.7889 45.4997C35.3949 45.4997 32.0009 45.4997 28.728 45.4997C27.2735 45.4997 27.1523 45.3775 27.1523 43.912C27.1523 40.2482 27.1523 36.5845 27.1523 32.9207C27.1523 31.2109 27.1522 31.2109 28.8493 31.0888C32.6069 30.9666 36.2434 30.8445 40.0011 30.6003C41.8193 30.4781 42.0617 30.2339 42.0617 28.402C42.0617 27.0586 42.0617 25.7152 42.0617 24.3718C42.0617 22.9063 41.5769 22.5399 40.1223 22.6621C34.304 23.0284 28.4856 23.3948 22.5461 23.7612C20.6066 23.8833 20.3642 24.2497 20.3642 26.0816C20.4854 33.287 20.4854 40.8589 20.4854 48.4307Z" fill="#618E44"/>
<path d="M86.4282 50.0189C83.1554 50.0189 80.8523 48.187 80.3674 45.0117C80.2462 44.0347 79.7613 43.4241 79.034 42.9356C77.9431 42.2028 76.8522 41.3479 75.64 40.7373C75.0339 40.4931 74.3066 40.3709 73.5793 40.3709C71.5187 40.4931 69.7004 40.2488 68.2459 38.7833C66.5488 36.9514 66.1852 34.3868 67.3974 32.3106C68.6095 30.2345 71.3975 29.0132 73.5793 29.6238C74.4278 29.8681 75.0339 29.8681 75.7612 29.2574C76.3673 28.7689 78.6704 27.4256 79.3977 27.0592C80.9735 26.3264 80.2462 25.96 80.7311 24.2503C81.5796 21.3192 85.7009 19.121 89.4586 21.5635C90.4283 22.1741 90.1858 23.6396 90.7919 24.7388C90.5495 26.6928 92.0041 27.6698 90.7919 29.1353C90.1858 29.7459 89.2161 30.1123 88.6101 30.723C88.1252 31.0893 87.7615 31.8221 87.6403 32.3106C87.5191 34.3868 87.6403 36.3408 87.6403 38.4169C87.6403 39.1497 88.004 39.6382 88.6101 40.0046C90.0646 40.8594 91.1556 41.8365 91.7617 43.6683C91.0344 45.1339 91.6404 46.1109 90.7919 47.9428C89.4586 49.164 88.1252 50.2632 86.4282 50.0189ZM84.9736 35.1195C84.8524 33.0434 85.4585 30.8451 82.4281 29.8681L82.3068 29.7459C81.7008 29.7459 81.4583 29.2574 80.8523 29.5017C80.0038 29.746 78.3067 30.8451 77.5795 31.3336C76.8522 31.8221 77.2158 32.1885 77.4582 32.9212C78.0643 34.3868 78.1855 35.8523 77.4582 37.4399C77.337 37.8063 77.337 38.2948 77.5795 38.6612C77.9431 39.0275 78.7916 39.6382 79.2765 39.8824C81.3371 40.9816 81.822 41.1037 83.3978 40.1267C84.1251 39.5161 84.6099 39.1497 84.4887 38.1727C84.7312 37.3178 84.9736 36.0965 84.9736 35.1195Z" fill="#618E44"/>
<path d="M86.4238 32.0649C89.6372 32.0649 92.2421 29.4404 92.2421 26.2029C92.2421 22.9654 89.6372 20.3408 86.4238 20.3408C83.2104 20.3408 80.6055 22.9654 80.6055 26.2029C80.6055 29.4404 83.2104 32.0649 86.4238 32.0649Z" fill="#618E44"/>
<path d="M86.1816 50.5073C89.395 50.5073 92 47.8828 92 44.6453C92 41.4077 89.395 38.7832 86.1816 38.7832C82.9682 38.7832 80.3633 41.4077 80.3633 44.6453C80.3633 47.8828 82.9682 50.5073 86.1816 50.5073Z" fill="#618E44"/>
<path d="M72.3652 41.103C75.5786 41.103 78.1836 38.4785 78.1836 35.241C78.1836 32.0034 75.5786 29.3789 72.3652 29.3789C69.1518 29.3789 66.5469 32.0034 66.5469 35.241C66.5469 38.4785 69.1518 41.103 72.3652 41.103Z" fill="#618E44"/>
<path d="M132.951 40.493V51.7286H143.133V53.4384H132.951V66.2616H131.012V38.7832H143.861V40.493H132.951Z" fill="#618E44"/>
<path d="M148.832 66.3825V37.1943H150.65V66.3825H148.832Z" fill="#618E44"/>
<path d="M169.798 66.384V62.8424C168.465 65.5291 166.283 66.8725 163.495 66.8725C158.889 66.8725 156.586 63.9415 156.586 58.0794V46.7217H158.404V57.713C158.404 60.3998 158.889 62.3538 159.738 63.5751C160.586 64.7964 162.041 65.407 163.859 65.407C165.677 65.407 167.132 64.6742 168.344 63.3309C169.435 61.9875 170.041 60.1556 170.041 57.9573V46.7217H171.859V66.5061H169.798V66.384Z" fill="#618E44"/>
<path d="M178.279 56.6132C178.279 59.2999 178.885 61.4982 180.098 62.9637C181.31 64.5514 183.007 65.2841 185.189 65.2841C187.37 65.2841 189.552 64.4292 191.613 62.8416V64.6735C189.552 66.139 187.37 66.8718 184.825 66.8718C182.279 66.8718 180.219 66.0169 178.643 64.185C177.067 62.3531 176.34 59.7884 176.34 56.491C176.34 53.56 177.188 51.2396 178.764 49.1635C180.34 47.2094 182.522 46.2324 185.067 46.2324C187.492 46.2324 189.431 47.0873 190.643 48.7971C191.855 50.5068 192.583 52.8272 192.583 55.8804V56.6132H178.279ZM191.007 55.0255C190.886 52.7051 190.401 50.9953 189.431 49.7741C188.461 48.5528 187.007 47.9422 185.31 47.9422C183.492 47.9422 181.916 48.5528 180.704 49.7741C179.491 50.9953 178.764 52.8272 178.522 55.1476H191.007V55.0255Z" fill="#618E44"/>
<path d="M211.017 66.3823V54.9025C211.017 50.1395 209.32 47.8191 205.926 47.8191C203.987 47.8191 202.532 48.5519 201.32 49.8953C200.108 51.2387 199.502 53.0706 199.502 55.0246V66.3823H197.684V46.5979H199.502V50.1395H199.623C201.078 47.4528 203.26 46.1094 206.29 46.1094C208.351 46.1094 210.048 46.8421 211.139 48.1855C212.229 49.651 212.836 51.6051 212.836 54.2918V66.2602H211.017V66.3823Z" fill="#618E44"/>
<path d="M226.409 66.1385C225.439 66.627 224.591 66.7491 223.863 66.7491C220.954 66.7491 219.5 65.0393 219.5 61.4977V48.308H215.984V46.7204H219.5V41.5911C219.742 41.469 220.106 41.3468 220.348 41.2247C220.712 41.1026 220.954 40.9805 221.197 40.9805V46.7204H226.409V48.308H221.197V61.3756C221.197 62.719 221.439 63.696 221.803 64.3066C222.288 64.9172 222.894 65.2836 223.985 65.2836C224.712 65.2836 225.439 65.0393 226.288 64.5508V66.1385H226.409Z" fill="#618E44"/>
<path d="M241.438 66.3837V38.7832H254.286V40.493H243.377V51.6065H253.559V53.3162H243.377V64.674H254.892V66.3837H241.438Z" fill="#618E44"/>
<path d="M274.535 66.3825V62.8409H274.414C273.808 64.0621 272.838 65.0391 271.626 65.7719C270.414 66.5046 268.959 66.871 267.383 66.871C264.959 66.871 263.02 66.0161 261.444 64.1842C259.868 62.3523 259.141 59.9098 259.141 56.8567C259.141 53.6814 259.989 51.1167 261.686 49.1627C263.383 47.2087 265.565 46.2317 268.111 46.2317C271.02 46.2317 273.08 47.4529 274.414 49.8955H274.535V37.1943H276.353V66.3825H274.535ZM274.535 54.4141C274.535 52.5822 273.929 50.9946 272.838 49.7733C271.626 48.5521 270.171 47.8193 268.232 47.8193C266.171 47.8193 264.474 48.5521 263.141 50.1397C261.807 51.7274 261.08 53.9256 261.08 56.7345C261.08 59.4213 261.686 61.6196 262.898 63.0851C264.11 64.5506 265.686 65.2834 267.504 65.2834C269.686 65.2834 271.505 64.5506 272.717 63.2072C273.929 61.8638 274.535 60.1541 274.535 58.0779V54.4141Z" fill="#618E44"/>
<path d="M283.38 41.7122C283.017 41.7122 282.653 41.5901 282.411 41.3458C282.168 41.1016 281.926 40.7352 281.926 40.2467C281.926 39.8803 282.047 39.514 282.411 39.2697C282.653 39.0255 283.017 38.9033 283.38 38.9033C283.744 38.9033 284.108 39.0255 284.471 39.2697C284.714 39.514 284.956 39.8803 284.956 40.3688C284.956 40.7352 284.835 41.1016 284.471 41.468C284.229 41.5901 283.865 41.7122 283.38 41.7122ZM282.532 66.3817V46.5973H284.35V66.3817H282.532Z" fill="#618E44"/>
<path d="M298.288 66.1385C297.318 66.627 296.47 66.7491 295.742 66.7491C292.833 66.7491 291.379 65.0393 291.379 61.4977V48.308H287.863V46.7204H291.379V41.5911C291.621 41.469 291.985 41.3468 292.227 41.2247C292.591 41.1026 292.833 40.9805 293.076 40.9805V46.7204H298.288V48.308H293.076V61.3756C293.076 62.719 293.318 63.696 293.682 64.3066C294.167 64.9172 294.773 65.2836 295.864 65.2836C296.591 65.2836 297.318 65.0393 298.167 64.5508V66.1385H298.288Z" fill="#618E44"/>
<path d="M310.041 66.8708C307.131 66.8708 304.95 65.8938 303.253 64.0619C301.556 62.1079 300.707 59.6654 300.707 56.6122C300.707 53.3148 301.556 50.7502 303.374 48.9183C305.071 47.0864 307.374 46.1094 310.283 46.1094C313.071 46.1094 315.253 47.0864 316.95 48.9183C318.526 50.7502 319.374 53.3148 319.374 56.6122C319.374 59.6654 318.526 62.23 316.95 64.0619C315.253 65.8938 312.95 66.8708 310.041 66.8708ZM310.162 47.8191C307.859 47.8191 306.041 48.5519 304.586 50.1395C303.253 51.7272 302.525 53.9255 302.525 56.7344C302.525 59.299 303.253 61.3752 304.586 62.9628C305.919 64.5504 307.738 65.2832 310.041 65.2832C312.344 65.2832 314.162 64.5504 315.495 62.9628C316.829 61.3752 317.435 59.299 317.435 56.4901C317.435 53.6812 316.829 51.4829 315.495 50.0174C314.283 48.5519 312.586 47.8191 310.162 47.8191Z" fill="#618E44"/>
<path d="M333.439 48.5528C332.833 48.1864 332.106 47.9422 331.378 47.9422C329.802 47.9422 328.59 48.7971 327.499 50.3847C326.408 51.9724 325.924 54.2928 325.924 57.2238V66.5054H324.227V46.5988H325.924V50.9953H326.045C326.53 49.5298 327.257 48.3086 328.227 47.4537C329.196 46.5988 330.287 46.2324 331.621 46.2324C332.348 46.2324 332.954 46.3546 333.56 46.5988V48.5528H333.439Z" fill="#618E44"/>
</svg>
