<?xml version="1.0" encoding="UTF-8" standalone="no"?>
<!-- Created with Inkscape (http://www.inkscape.org/) -->

<svg
   version="1.1"
   id="svg1"
   width="177.91733"
   height="224"
   viewBox="0 0 177.91733 224"
   sodipodi:docname="loghi.pdf"
   inkscape:export-filename="logo_bn.svg"
   inkscape:export-xdpi="96"
   inkscape:export-ydpi="96"
   xmlns:inkscape="http://www.inkscape.org/namespaces/inkscape"
   xmlns:sodipodi="http://sodipodi.sourceforge.net/DTD/sodipodi-0.dtd"
   xmlns="http://www.w3.org/2000/svg"
   xmlns:svg="http://www.w3.org/2000/svg">
  <defs
     id="defs1">
    <clipPath
       clipPathUnits="userSpaceOnUse"
       id="clipPath73">
      <rect
         style="opacity:0.66;fill:#ffff00;stroke-width:0.75"
         id="rect74"
         width="209.09952"
         height="226.15613"
         x="-22.812527"
         y="-35.96666" />
    </clipPath>
    <clipPath
       clipPathUnits="userSpaceOnUse"
       id="clipPath74">
      <rect
         style="opacity:0.66;fill:#ffff00;stroke-width:0.75"
         id="rect75"
         width="209.09952"
         height="226.15613"
         x="-22.812527"
         y="-35.96666" />
    </clipPath>
    <clipPath
       clipPathUnits="userSpaceOnUse"
       id="clipPath75">
      <rect
         style="opacity:0.66;fill:#ffff00;stroke-width:0.75"
         id="rect76"
         width="209.09952"
         height="226.15613"
         x="-22.812527"
         y="-35.96666" />
    </clipPath>
    <clipPath
       clipPathUnits="userSpaceOnUse"
       id="clipPath76">
      <rect
         style="opacity:0.66;fill:#ffff00;stroke-width:0.75"
         id="rect77"
         width="209.09952"
         height="226.15613"
         x="-22.812527"
         y="-35.96666" />
    </clipPath>
    <clipPath
       clipPathUnits="userSpaceOnUse"
       id="clipPath77">
      <rect
         style="opacity:0.66;fill:#ffff00;stroke-width:0.75"
         id="rect78"
         width="209.09952"
         height="226.15613"
         x="-22.812527"
         y="-35.96666" />
    </clipPath>
    <clipPath
       clipPathUnits="userSpaceOnUse"
       id="clipPath78">
      <rect
         style="opacity:0.66;fill:#ffff00;stroke-width:0.75"
         id="rect79"
         width="209.09952"
         height="226.15613"
         x="-22.812527"
         y="-35.96666" />
    </clipPath>
    <clipPath
       clipPathUnits="userSpaceOnUse"
       id="clipPath79">
      <rect
         style="opacity:0.66;fill:#ffff00;stroke-width:0.75"
         id="rect80"
         width="209.09952"
         height="226.15613"
         x="-22.812527"
         y="-35.96666" />
    </clipPath>
    <clipPath
       clipPathUnits="userSpaceOnUse"
       id="clipPath80">
      <rect
         style="opacity:0.66;fill:#ffff00;stroke-width:0.75"
         id="rect81"
         width="209.09952"
         height="226.15613"
         x="-22.812527"
         y="-35.96666" />
    </clipPath>
    <clipPath
       clipPathUnits="userSpaceOnUse"
       id="clipPath81">
      <rect
         style="opacity:0.66;fill:#ffff00;stroke-width:0.75"
         id="rect82"
         width="209.09952"
         height="226.15613"
         x="-22.812527"
         y="-35.96666" />
    </clipPath>
    <clipPath
       clipPathUnits="userSpaceOnUse"
       id="clipPath82">
      <rect
         style="opacity:0.66;fill:#ffff00;stroke-width:0.75"
         id="rect83"
         width="209.09952"
         height="226.15613"
         x="-22.812527"
         y="-35.96666" />
    </clipPath>
    <clipPath
       clipPathUnits="userSpaceOnUse"
       id="clipPath83">
      <rect
         style="opacity:0.66;fill:#ffff00;stroke-width:0.75"
         id="rect84"
         width="209.09952"
         height="226.15613"
         x="-22.812527"
         y="-35.96666" />
    </clipPath>
    <clipPath
       clipPathUnits="userSpaceOnUse"
       id="clipPath84">
      <rect
         style="opacity:0.66;fill:#ffff00;stroke-width:0.75"
         id="rect85"
         width="209.09952"
         height="226.15613"
         x="-22.812527"
         y="-35.96666" />
    </clipPath>
    <clipPath
       clipPathUnits="userSpaceOnUse"
       id="clipPath85">
      <rect
         style="opacity:0.66;fill:#ffff00;stroke-width:0.75"
         id="rect86"
         width="209.09952"
         height="226.15613"
         x="-22.812527"
         y="-35.96666" />
    </clipPath>
    <clipPath
       clipPathUnits="userSpaceOnUse"
       id="clipPath86">
      <rect
         style="opacity:0.66;fill:#ffff00;stroke-width:0.75"
         id="rect87"
         width="209.09952"
         height="226.15613"
         x="-22.812527"
         y="-35.96666" />
    </clipPath>
    <clipPath
       clipPathUnits="userSpaceOnUse"
       id="clipPath87">
      <rect
         style="opacity:0.66;fill:#ffff00;stroke-width:0.75"
         id="rect88"
         width="209.09952"
         height="226.15613"
         x="-22.812527"
         y="-35.96666" />
    </clipPath>
    <clipPath
       clipPathUnits="userSpaceOnUse"
       id="clipPath88">
      <rect
         style="opacity:0.66;fill:#ffff00;stroke-width:0.75"
         id="rect89"
         width="209.09952"
         height="226.15613"
         x="-22.812527"
         y="-35.96666" />
    </clipPath>
    <clipPath
       clipPathUnits="userSpaceOnUse"
       id="clipPath89">
      <rect
         style="opacity:0.66;fill:#ffff00;stroke-width:0.75"
         id="rect90"
         width="209.09952"
         height="226.15613"
         x="-22.812527"
         y="-35.96666" />
    </clipPath>
    <clipPath
       clipPathUnits="userSpaceOnUse"
       id="clipPath90">
      <rect
         style="opacity:0.66;fill:#ffff00;stroke-width:0.75"
         id="rect91"
         width="209.09952"
         height="226.15613"
         x="-22.812527"
         y="-35.96666" />
    </clipPath>
    <clipPath
       clipPathUnits="userSpaceOnUse"
       id="clipPath91">
      <rect
         style="opacity:0.66;fill:#ffff00;stroke-width:0.75"
         id="rect92"
         width="209.09952"
         height="226.15613"
         x="-22.812527"
         y="-35.96666" />
    </clipPath>
    <clipPath
       clipPathUnits="userSpaceOnUse"
       id="clipPath92">
      <rect
         style="opacity:0.66;fill:#ffff00;stroke-width:0.75"
         id="rect93"
         width="209.09952"
         height="226.15613"
         x="-22.812527"
         y="-35.96666" />
    </clipPath>
    <clipPath
       clipPathUnits="userSpaceOnUse"
       id="clipPath93">
      <rect
         style="opacity:0.66;fill:#ffff00;stroke-width:0.75"
         id="rect94"
         width="209.09952"
         height="226.15613"
         x="-22.812527"
         y="-35.96666" />
    </clipPath>
    <clipPath
       clipPathUnits="userSpaceOnUse"
       id="clipPath94">
      <rect
         style="opacity:0.66;fill:#ffff00;stroke-width:0.75"
         id="rect95"
         width="209.09952"
         height="226.15613"
         x="-22.812527"
         y="-35.96666" />
    </clipPath>
    <clipPath
       clipPathUnits="userSpaceOnUse"
       id="clipPath95">
      <rect
         style="opacity:0.66;fill:#ffff00;stroke-width:0.75"
         id="rect96"
         width="209.09952"
         height="226.15613"
         x="-22.812527"
         y="-35.96666" />
    </clipPath>
    <clipPath
       clipPathUnits="userSpaceOnUse"
       id="clipPath96">
      <rect
         style="opacity:0.66;fill:#ffff00;stroke-width:0.75"
         id="rect97"
         width="209.09952"
         height="226.15613"
         x="-22.812527"
         y="-35.96666" />
    </clipPath>
    <clipPath
       clipPathUnits="userSpaceOnUse"
       id="clipPath97">
      <rect
         style="opacity:0.66;fill:#ffff00;stroke-width:0.75"
         id="rect98"
         width="209.09952"
         height="226.15613"
         x="-22.812527"
         y="-35.96666" />
    </clipPath>
    <clipPath
       clipPathUnits="userSpaceOnUse"
       id="clipPath98">
      <rect
         style="opacity:0.66;fill:#ffff00;stroke-width:0.75"
         id="rect99"
         width="209.09952"
         height="226.15613"
         x="-22.812527"
         y="-35.96666" />
    </clipPath>
    <clipPath
       clipPathUnits="userSpaceOnUse"
       id="clipPath99">
      <rect
         style="opacity:0.66;fill:#ffff00;stroke-width:0.75"
         id="rect100"
         width="209.09952"
         height="226.15613"
         x="-22.812527"
         y="-35.96666" />
    </clipPath>
    <clipPath
       clipPathUnits="userSpaceOnUse"
       id="clipPath100">
      <rect
         style="opacity:0.66;fill:#ffff00;stroke-width:0.75"
         id="rect101"
         width="209.09952"
         height="226.15613"
         x="-22.812527"
         y="-35.96666" />
    </clipPath>
    <clipPath
       clipPathUnits="userSpaceOnUse"
       id="clipPath101">
      <rect
         style="opacity:0.66;fill:#ffff00;stroke-width:0.75"
         id="rect102"
         width="209.09952"
         height="226.15613"
         x="-22.812527"
         y="-35.96666" />
    </clipPath>
    <clipPath
       clipPathUnits="userSpaceOnUse"
       id="clipPath102">
      <rect
         style="opacity:0.66;fill:#ffff00;stroke-width:0.75"
         id="rect103"
         width="209.09952"
         height="226.15613"
         x="-22.812527"
         y="-35.96666" />
    </clipPath>
    <clipPath
       clipPathUnits="userSpaceOnUse"
       id="clipPath103">
      <rect
         style="opacity:0.66;fill:#ffff00;stroke-width:0.75"
         id="rect104"
         width="209.09952"
         height="226.15613"
         x="-22.812527"
         y="-35.96666" />
    </clipPath>
    <clipPath
       clipPathUnits="userSpaceOnUse"
       id="clipPath104">
      <rect
         style="opacity:0.66;fill:#ffff00;stroke-width:0.75"
         id="rect105"
         width="209.09952"
         height="226.15613"
         x="-22.812527"
         y="-35.96666" />
    </clipPath>
    <clipPath
       clipPathUnits="userSpaceOnUse"
       id="clipPath105">
      <rect
         style="opacity:0.66;fill:#ffff00;stroke-width:0.75"
         id="rect106"
         width="209.09952"
         height="226.15613"
         x="-22.812527"
         y="-35.96666" />
    </clipPath>
    <clipPath
       clipPathUnits="userSpaceOnUse"
       id="clipPath106">
      <rect
         style="opacity:0.66;fill:#ffff00;stroke-width:0.75"
         id="rect107"
         width="209.09952"
         height="226.15613"
         x="-22.812527"
         y="-35.96666" />
    </clipPath>
    <clipPath
       clipPathUnits="userSpaceOnUse"
       id="clipPath107">
      <rect
         style="opacity:0.66;fill:#ffff00;stroke-width:0.75"
         id="rect108"
         width="209.09952"
         height="226.15613"
         x="-22.812527"
         y="-35.96666" />
    </clipPath>
    <clipPath
       clipPathUnits="userSpaceOnUse"
       id="clipPath108">
      <rect
         style="opacity:0.66;fill:#ffff00;stroke-width:0.75"
         id="rect109"
         width="209.09952"
         height="226.15613"
         x="-22.812527"
         y="-35.96666" />
    </clipPath>
    <clipPath
       clipPathUnits="userSpaceOnUse"
       id="clipPath109">
      <rect
         style="opacity:0.66;fill:#ffff00;stroke-width:0.75"
         id="rect110"
         width="209.09952"
         height="226.15613"
         x="-22.812527"
         y="-35.96666" />
    </clipPath>
  </defs>
  <sodipodi:namedview
     id="namedview1"
     pagecolor="#ffffff"
     bordercolor="#000000"
     borderopacity="0.25"
     inkscape:showpageshadow="2"
     inkscape:pageopacity="0.0"
     inkscape:pagecheckerboard="0"
     inkscape:deskcolor="#d1d1d1" />
  <g
     id="g1"
     inkscape:groupmode="layer"
     inkscape:label="1">
    <path
       id="path37"
       d="m 0,147.887 h 7.664 c 1.813,0 3.496,0.445 5.004,1.328 1.512,0.883 2.715,2.074 3.594,3.59 0.879,1.519 1.316,3.191 1.316,5.015 0,1.825 -0.437,3.496 -1.316,5.012 -0.879,1.52 -2.082,2.711 -3.594,3.594 -1.508,0.883 -3.191,1.324 -5.004,1.324 H 0 Z m 11.102,16.023 c 1.05,-0.617 1.875,-1.461 2.464,-2.539 0.614,-1.074 0.899,-2.246 0.899,-3.551 0,-1.289 -0.305,-2.48 -0.899,-3.554 -0.609,-1.075 -1.414,-1.922 -2.464,-2.555 -1.032,-0.613 -2.18,-0.922 -3.438,-0.922 H 3.113 v 14.043 h 4.551 c 1.242,0.02 2.387,-0.289 3.438,-0.922 z"
       style="fill:#b3b3b3;fill-opacity:1;fill-rule:nonzero;stroke:none"
       transform="scale(1.3333333)"
       clip-path="url(#clipPath109)" />
    <path
       id="path38"
       d="m 20.219,147.906 h 3.113 v 19.844 h -3.113 z"
       style="fill:#b3b3b3;fill-opacity:1;fill-rule:nonzero;stroke:none"
       transform="scale(1.3333333)"
       clip-path="url(#clipPath108)" />
    <path
       id="path39"
       d="m 32.371,147.887 h 15.094 v 3.074 h -5.981 v 16.789 h -3.113 v -16.789 h -6 z"
       style="fill:#ffffff;fill-opacity:1;fill-rule:nonzero;stroke:none"
       transform="scale(1.3333333)"
       clip-path="url(#clipPath107)" />
    <path
       id="path40"
       d="m 48.191,152.672 c 0.899,-1.555 2.121,-2.785 3.668,-3.668 1.551,-0.902 3.27,-1.348 5.141,-1.348 1.895,0 3.613,0.446 5.16,1.348 1.547,0.902 2.789,2.113 3.688,3.668 0.898,1.555 1.359,3.266 1.359,5.168 0,1.883 -0.461,3.59 -1.359,5.148 -0.899,1.555 -2.121,2.785 -3.688,3.668 C 60.613,167.559 58.895,168 57,168 c -1.871,0 -3.59,-0.441 -5.141,-1.344 -1.547,-0.902 -2.789,-2.113 -3.668,-3.668 -0.898,-1.558 -1.336,-3.265 -1.336,-5.148 0,-1.902 0.438,-3.613 1.336,-5.168 z m 2.715,8.738 c 0.629,1.098 1.469,1.942 2.559,2.574 1.07,0.618 2.273,0.942 3.574,0.942 1.301,0 2.504,-0.305 3.574,-0.942 1.071,-0.613 1.93,-1.476 2.559,-2.574 0.633,-1.094 0.937,-2.285 0.937,-3.59 0,-1.308 -0.304,-2.515 -0.937,-3.593 -0.629,-1.075 -1.469,-1.938 -2.559,-2.575 -1.07,-0.632 -2.273,-0.941 -3.574,-0.941 -1.301,0 -2.504,0.309 -3.574,0.941 -1.07,0.637 -1.93,1.481 -2.559,2.575 -0.633,1.078 -0.937,2.285 -0.937,3.593 0,1.305 0.304,2.496 0.937,3.59 z"
       style="fill:#ffffff;fill-opacity:1;fill-rule:nonzero;stroke:none"
       transform="scale(1.3333333)"
       clip-path="url(#clipPath106)" />
    <path
       id="path41"
       d="m 69.863,167.75 v -19.844 h 7.164 c 1.129,0 2.161,0.27 3.094,0.789 0.938,0.52 1.664,1.25 2.219,2.153 0.535,0.922 0.801,1.937 0.801,3.074 0,0.996 -0.246,1.898 -0.727,2.726 -0.476,0.825 -1.086,1.461 -1.812,1.922 -0.727,0.461 -1.434,0.707 -2.122,0.707 l -0.402,0.02 v 0.019 c 0.402,0.039 0.746,0.137 0.992,0.27 0.25,0.137 0.481,0.348 0.672,0.598 l 5.578,7.566 h -2.425 c -0.422,0 -0.786,-0.078 -1.11,-0.211 -0.324,-0.133 -0.629,-0.402 -0.898,-0.769 l -5.043,-6.817 h -2.848 v 7.797 z m 3.114,-10.871 h 3.918 c 0.57,0 1.105,-0.137 1.585,-0.387 0.477,-0.246 0.86,-0.613 1.125,-1.074 0.27,-0.461 0.422,-0.961 0.422,-1.516 0,-0.578 -0.132,-1.078 -0.422,-1.519 -0.285,-0.442 -0.648,-0.789 -1.125,-1.035 -0.48,-0.25 -1.015,-0.368 -1.605,-0.368 h -3.898 z"
       style="fill:#b3b3b3;fill-opacity:1;fill-rule:nonzero;stroke:none"
       transform="scale(1.3333333)"
       clip-path="url(#clipPath105)" />
    <path
       id="path42"
       d="m 86.887,147.906 h 3.117 v 19.844 h -3.117 z"
       style="fill:#b3b3b3;fill-opacity:1;fill-rule:nonzero;stroke:none"
       transform="scale(1.3333333)"
       clip-path="url(#clipPath104)" />
    <path
       id="path43"
       d="m 110.43,147.887 v 19.843 h -2.371 c -0.192,0 -0.364,-0.058 -0.555,-0.191 -0.192,-0.117 -0.363,-0.309 -0.516,-0.519 L 96.824,151.98 h -0.078 c 0.27,0.653 0.402,1.344 0.402,2.075 l -0.019,13.656 h -3.094 v -19.84 h 2.426 c 0.402,0 0.746,0.074 1.031,0.211 0.285,0.133 0.555,0.402 0.805,0.746 l 9.496,14.004 h 0.055 c -0.325,-0.73 -0.496,-1.461 -0.496,-2.187 v -12.793 h 3.078 z"
       style="fill:#b3b3b3;fill-opacity:1;fill-rule:nonzero;stroke:none"
       transform="scale(1.3333333)"
       clip-path="url(#clipPath103)" />
    <path
       id="path44"
       d="m 114.422,152.672 c 0.898,-1.555 2.121,-2.785 3.668,-3.668 1.551,-0.902 3.269,-1.348 5.14,-1.348 1.895,0 3.614,0.446 5.161,1.348 1.547,0.902 2.789,2.113 3.687,3.668 0.899,1.555 1.36,3.266 1.36,5.168 0,1.883 -0.461,3.59 -1.36,5.148 -0.898,1.555 -2.121,2.785 -3.687,3.668 -1.547,0.903 -3.266,1.344 -5.161,1.344 -1.871,0 -3.589,-0.441 -5.14,-1.344 -1.547,-0.902 -2.789,-2.113 -3.668,-3.668 -0.899,-1.558 -1.336,-3.265 -1.336,-5.148 -0.02,-1.902 0.437,-3.613 1.336,-5.168 z m 2.695,8.738 c 0.629,1.098 1.473,1.942 2.563,2.574 1.066,0.618 2.273,0.942 3.57,0.942 1.301,0 2.504,-0.305 3.574,-0.942 1.071,-0.613 1.93,-1.476 2.563,-2.574 0.629,-1.094 0.933,-2.285 0.933,-3.59 0,-1.308 -0.304,-2.515 -0.933,-3.593 -0.633,-1.075 -1.473,-1.938 -2.563,-2.575 -1.07,-0.632 -2.273,-0.941 -3.574,-0.941 -1.297,0 -2.504,0.309 -3.57,0.941 -1.071,0.637 -1.934,1.481 -2.563,2.575 -0.629,1.078 -0.937,2.285 -0.937,3.593 0,1.305 0.324,2.496 0.937,3.59 z"
       style="fill:#b3b3b3;fill-opacity:1;fill-rule:nonzero;stroke:none"
       transform="scale(1.3333333)"
       clip-path="url(#clipPath102)" />
    <path
       id="path45"
       d="m 3.363,135.461 c 0.364,0.672 0.879,1.172 1.547,1.555 0.668,0.367 1.434,0.558 2.313,0.558 0.879,0 1.664,-0.191 2.332,-0.558 0.668,-0.364 1.183,-0.883 1.547,-1.555 0.363,-0.672 0.554,-1.422 0.554,-2.305 v -10.929 h 2.789 v 10.929 c 0,1.422 -0.304,2.668 -0.898,3.766 -0.609,1.094 -1.449,1.937 -2.539,2.555 -1.09,0.613 -2.352,0.902 -3.785,0.902 -1.414,0 -2.676,-0.309 -3.766,-0.902 -1.086,-0.618 -1.949,-1.461 -2.539,-2.555 -0.613,-1.098 -0.898,-2.344 -0.898,-3.766 v -10.929 h 2.808 v 10.929 c -0.019,0.883 0.172,1.653 0.535,2.305 z"
       style="fill:#ffffff;fill-opacity:1;fill-rule:nonzero;stroke:none"
       transform="scale(1.3333333)"
       clip-path="url(#clipPath101)" />
    <path
       id="path46"
       d="m 32.293,122.246 v 17.922 h -2.141 c -0.172,0 -0.343,-0.059 -0.496,-0.176 -0.172,-0.113 -0.324,-0.265 -0.457,-0.461 l -9.191,-13.578 h -0.059 c 0.25,0.594 0.363,1.211 0.363,1.883 l -0.019,12.332 h -2.809 v -17.922 h 2.2 c 0.363,0 0.668,0.055 0.933,0.192 0.25,0.132 0.496,0.363 0.727,0.691 l 8.582,12.656 h 0.054 c -0.304,-0.652 -0.437,-1.324 -0.437,-1.976 v -11.543 h 2.75 z"
       style="fill:#ffffff;fill-opacity:1;fill-rule:nonzero;stroke:none"
       transform="scale(1.3333333)"
       clip-path="url(#clipPath100)" />
    <path
       id="path47"
       d="m 35.945,122.246 h 2.809 v 17.922 h -2.809 z"
       style="fill:#ffffff;fill-opacity:1;fill-rule:nonzero;stroke:none"
       transform="scale(1.3333333)"
       clip-path="url(#clipPath99)" />
    <path
       id="path48"
       d="m 57.824,122.246 -7.742,17.922 h -2.48 l -7.743,-17.922 h 1.875 c 0.383,0 0.707,0.094 0.993,0.266 0.285,0.176 0.496,0.445 0.648,0.789 l 4.895,11.41 c 0.285,0.633 0.457,1.383 0.515,2.246 h 0.094 c 0.059,-0.844 0.25,-1.594 0.516,-2.246 l 4.894,-11.41 c 0.152,-0.324 0.363,-0.594 0.649,-0.77 0.285,-0.191 0.613,-0.265 0.992,-0.265 z"
       style="fill:#b3b3b3;fill-opacity:1;fill-rule:nonzero;stroke:none"
       transform="scale(1.3333333)"
       clip-path="url(#clipPath98)" />
    <path
       id="path49"
       d="m 58.949,140.168 v -17.922 h 11.239 v 2.785 h -8.43 v 4.629 h 6.844 v 2.727 h -6.844 v 5.031 h 8.43 v 2.785 H 58.949 Z"
       style="fill:#b3b3b3;fill-opacity:1;fill-rule:nonzero;stroke:none"
       transform="scale(1.3333333)"
       clip-path="url(#clipPath97)" />
    <path
       id="path50"
       d="m 72.707,140.168 v -17.922 h 6.481 c 1.011,0 1.949,0.231 2.789,0.711 0.839,0.481 1.507,1.113 1.988,1.938 0.476,0.828 0.726,1.75 0.726,2.765 0,0.902 -0.211,1.731 -0.652,2.461 -0.437,0.731 -0.973,1.324 -1.625,1.746 -0.648,0.422 -1.297,0.637 -1.91,0.653 l -0.363,0.019 v 0.02 c 0.363,0.039 0.671,0.136 0.898,0.25 0.231,0.136 0.441,0.308 0.594,0.539 l 5.023,6.84 h -2.195 c -0.383,0 -0.707,-0.059 -1.012,-0.196 -0.308,-0.133 -0.574,-0.363 -0.804,-0.691 l -4.567,-6.145 H 75.5 v 7.047 h -2.793 z m 2.828,-9.816 h 3.535 c 0.516,0 0.996,-0.118 1.434,-0.348 0.441,-0.231 0.766,-0.555 1.016,-0.961 0.246,-0.402 0.378,-0.863 0.378,-1.363 0,-0.516 -0.132,-0.981 -0.378,-1.383 -0.25,-0.402 -0.594,-0.711 -1.016,-0.942 -0.438,-0.23 -0.918,-0.324 -1.453,-0.324 h -3.535 z"
       style="fill:#b3b3b3;fill-opacity:1;fill-rule:nonzero;stroke:none"
       transform="scale(1.3333333)"
       clip-path="url(#clipPath96)" />
    <path
       id="path51"
       d="m 89.16,139.648 c -1.012,-0.5 -1.871,-1.152 -2.617,-1.96 l 0.613,-1.055 c 0.114,-0.192 0.266,-0.328 0.457,-0.422 0.192,-0.098 0.403,-0.156 0.649,-0.156 0.328,0 0.613,0.097 0.879,0.269 0.5,0.348 1.05,0.653 1.664,0.903 0.609,0.25 1.144,0.386 1.566,0.386 0.977,0 1.777,-0.23 2.371,-0.691 0.59,-0.461 0.899,-1.137 0.899,-1.981 0,-0.593 -0.25,-1.113 -0.766,-1.593 -0.516,-0.461 -1.34,-0.922 -2.465,-1.364 -1.719,-0.632 -2.98,-1.363 -3.805,-2.191 -0.82,-0.824 -1.222,-1.805 -1.222,-2.938 0,-0.941 0.23,-1.785 0.687,-2.515 0.461,-0.731 1.09,-1.309 1.914,-1.731 0.821,-0.402 1.758,-0.613 2.809,-0.613 0.84,0 1.699,0.172 2.578,0.5 0.879,0.324 1.586,0.805 2.16,1.418 l -0.496,0.887 c -0.152,0.269 -0.344,0.48 -0.574,0.613 -0.231,0.152 -0.477,0.211 -0.727,0.211 -0.211,0 -0.422,-0.059 -0.629,-0.152 -0.363,-0.25 -0.765,-0.422 -1.187,-0.539 -0.418,-0.114 -0.801,-0.172 -1.125,-0.172 -0.766,0 -1.395,0.191 -1.875,0.554 -0.477,0.387 -0.727,0.887 -0.727,1.52 0,0.5 0.231,0.941 0.707,1.324 0.481,0.387 1.223,0.77 2.278,1.133 1.773,0.578 3.094,1.328 3.972,2.25 0.879,0.922 1.301,2.055 1.301,3.359 0,1.059 -0.269,2 -0.785,2.844 -0.516,0.824 -1.242,1.481 -2.18,1.942 -0.933,0.46 -1.984,0.691 -3.187,0.691 -1.09,0.019 -2.141,-0.231 -3.137,-0.731 z"
       style="fill:#b3b3b3;fill-opacity:1;fill-rule:nonzero;stroke:none"
       transform="scale(1.3333333)"
       clip-path="url(#clipPath95)" />
    <path
       id="path52"
       d="m 100.797,122.246 h 2.809 v 17.922 h -2.809 z"
       style="fill:#b3b3b3;fill-opacity:1;fill-rule:nonzero;stroke:none"
       transform="scale(1.3333333)"
       clip-path="url(#clipPath94)" />
    <path
       id="path53"
       d="m 105.25,122.246 h 13.645 v 2.766 h -5.391 v 15.156 h -2.809 v -15.156 h -5.425 z"
       style="fill:#b3b3b3;fill-opacity:1;fill-rule:nonzero;stroke:none"
       transform="scale(1.3333333)"
       clip-path="url(#clipPath93)" />
    <path
       id="path54"
       d="m 133.438,140.168 h -1.915 c -0.363,0 -0.687,-0.098 -0.992,-0.289 -0.285,-0.191 -0.515,-0.441 -0.648,-0.789 l -1.223,-2.824 h -8.543 l -1.222,2.824 c -0.133,0.328 -0.364,0.598 -0.649,0.789 -0.289,0.191 -0.613,0.289 -0.976,0.289 h -1.911 l 7.797,-17.922 h 2.485 z m -5.887,-6.492 -2.617,-6.035 c -0.192,-0.442 -0.325,-0.786 -0.383,-1.036 -0.059,-0.25 -0.098,-0.519 -0.098,-0.828 h -0.133 c 0,0.289 -0.039,0.559 -0.093,0.828 -0.059,0.25 -0.172,0.594 -0.364,1.036 l -2.597,6.035 z"
       style="fill:#b3b3b3;fill-opacity:1;fill-rule:nonzero;stroke:none"
       transform="scale(1.3333333)"
       clip-path="url(#clipPath92)" />
    <path
       id="path55"
       d="m 120.25,115.867 c 0.289,0.75 0.918,2.094 1.281,2.903 0.231,0.515 0.766,1.246 1.528,1.246 1.015,0 1.339,0 1.625,0 -0.211,-0.461 -0.938,-2.266 -1.395,-3.11 -0.437,-0.847 -1.144,-1.039 -1.68,-1.058 -0.535,0 -1.359,0.019 -1.359,0.019 z"
       style="fill:#b3b3b3;fill-opacity:1;fill-rule:nonzero;stroke:none"
       transform="scale(1.3333333)"
       clip-path="url(#clipPath91)" />
    <path
       id="path56"
       d="m 70.914,94.66 c -0.172,-0.422 -0.402,-0.75 -0.691,-0.98 -0.285,-0.211 -0.61,-0.305 -0.993,-0.285 -0.382,0.019 -0.687,0.152 -0.957,0.402 -0.246,0.25 -0.437,0.594 -0.55,1.055 -0.118,0.441 -0.157,0.98 -0.118,1.578 0.04,0.593 0.137,1.113 0.309,1.554 0.172,0.422 0.398,0.75 0.688,0.981 0.285,0.211 0.609,0.305 0.992,0.285 0.383,-0.016 0.687,-0.152 0.957,-0.402 0.246,-0.25 0.437,-0.594 0.551,-1.055 0.117,-0.441 0.156,-0.981 0.117,-1.578 -0.02,-0.613 -0.133,-1.133 -0.305,-1.555 z"
       style="fill:#ffffff;fill-opacity:1;fill-rule:nonzero;stroke:none"
       transform="scale(1.3333333)"
       clip-path="url(#clipPath90)" />
    <path
       id="path57"
       d="m 21.84,47.906 c -0.172,-0.133 -0.379,-0.191 -0.61,-0.211 -0.23,-0.019 -0.441,0.02 -0.632,0.133 -0.192,0.098 -0.344,0.25 -0.457,0.445 -0.114,0.192 -0.172,0.403 -0.192,0.653 l -0.094,1.594 2.387,0.152 0.098,-1.613 c 0.015,-0.231 -0.02,-0.461 -0.117,-0.653 -0.055,-0.211 -0.192,-0.363 -0.383,-0.5 z"
       style="fill:#ffffff;fill-opacity:1;fill-rule:nonzero;stroke:none"
       transform="scale(1.3333333)"
       clip-path="url(#clipPath89)" />
    <path
       id="path58"
       d="m 76.949,92.953 c -0.019,0.094 -0.035,0.152 -0.054,0.231 l -1.204,3.168 c -0.039,0.078 -0.078,0.152 -0.136,0.23 -0.055,0.078 -0.114,0.133 -0.172,0.172 l 2.429,-0.613 -0.863,-3.438 c 0.02,0.074 0.02,0.152 0,0.25 z"
       style="fill:#ffffff;fill-opacity:1;fill-rule:nonzero;stroke:none"
       transform="scale(1.3333333)"
       clip-path="url(#clipPath88)" />
    <path
       id="path59"
       d="m 74.867,11.258 c 0.461,-0.176 0.86,-0.461 1.168,-0.848 0.324,-0.383 0.516,-0.844 0.61,-1.363 0.097,-0.52 0.058,-1.02 -0.114,-1.496 C 76.359,7.07 76.09,6.684 75.707,6.359 75.328,6.031 74.887,5.84 74.391,5.742 l -1.836,-0.304 -0.973,5.644 1.832,0.309 c 0.5,0.097 0.977,0.058 1.453,-0.133 z"
       style="fill:#ffffff;fill-opacity:1;fill-rule:nonzero;stroke:none"
       transform="scale(1.3333333)"
       clip-path="url(#clipPath87)" />
    <path
       id="path60"
       d="m 103.32,24.973 c 0.098,-0.192 0.192,-0.328 0.27,-0.426 0.074,-0.094 0.172,-0.172 0.265,-0.246 l -0.039,-0.039 c -0.113,0.074 -0.211,0.133 -0.324,0.191 -0.113,0.059 -0.265,0.094 -0.476,0.152 l -2.887,0.672 1.703,2.289 z"
       style="fill:#ffffff;fill-opacity:1;fill-rule:nonzero;stroke:none"
       transform="scale(1.3333333)"
       clip-path="url(#clipPath86)" />
    <path
       id="path61"
       d="m 29.676,25.355 c -0.211,-0.039 -0.364,-0.097 -0.477,-0.132 -0.117,-0.039 -0.211,-0.098 -0.324,-0.176 l -0.039,0.039 c 0.094,0.078 0.191,0.172 0.266,0.25 0.078,0.098 0.171,0.23 0.289,0.402 l 1.527,2.555 1.664,-2.324 z"
       style="fill:#ffffff;fill-opacity:1;fill-rule:nonzero;stroke:none"
       transform="scale(1.3333333)"
       clip-path="url(#clipPath85)" />
    <path
       id="path62"
       d="m 109.797,41.203 c 0.156,0.152 0.328,0.27 0.535,0.328 0.211,0.055 0.422,0.055 0.633,0 0.23,-0.058 0.402,-0.176 0.555,-0.328 0.152,-0.152 0.246,-0.348 0.285,-0.558 0.039,-0.211 0.039,-0.442 -0.02,-0.672 l -0.418,-1.555 -2.312,0.633 0.418,1.554 c 0.058,0.231 0.172,0.426 0.324,0.598 z"
       style="fill:#ffffff;fill-opacity:1;fill-rule:nonzero;stroke:none"
       transform="scale(1.3333333)"
       clip-path="url(#clipPath84)" />
    <path
       id="path63"
       d="m 66.613,16.75 c -19.414,0 -35.218,15.887 -35.218,35.422 0,19.535 15.804,35.402 35.218,35.402 19.414,0 35.219,-15.886 35.219,-35.422 0,-19.535 -15.805,-35.402 -35.219,-35.402 z m 6.25,15.465 c 2.578,-0.215 3.075,-2.824 1.621,-3.996 -1.05,-0.848 -1.222,-2.114 -0.265,-2.516 2.445,-1.019 3.285,-3.23 3.363,-5.398 0.535,0.25 0.992,0.422 0.879,1.191 -0.098,0.633 -0.668,2.688 -1.856,3.781 0.137,0.176 0.25,0.157 0.422,0.387 1.891,-1.23 2.543,-2.672 2.907,-3.824 0.343,0.328 0.8,0.75 0.55,1.289 -0.246,0.535 -1.316,2.418 -2.808,3.266 0.136,0.191 0.211,0.285 0.324,0.48 1.434,-0.5 3.348,-2.27 3.672,-3.094 0.172,0.305 0.648,0.785 0.226,1.344 -0.648,0.863 -1.964,1.98 -3.476,2.613 0.039,0.133 0.152,0.461 0.191,0.614 2.141,-0.555 3.535,-1.477 4.321,-2.172 0.246,0.597 0.304,0.941 -0.098,1.289 -0.402,0.328 -2.578,1.633 -4.051,1.843 0.039,0.211 0.02,0.442 0.039,0.614 1.852,0.039 3.934,-0.883 4.68,-1.364 0.098,0.211 0.172,1.059 -0.227,1.25 -0.402,0.192 -2.41,1.153 -4.55,1.094 -0.02,0.059 -0.114,0.539 -0.133,0.633 1.683,0.426 4.242,-0.113 4.949,-0.383 -0.039,0.539 -0.02,1 -0.707,1.192 -0.746,0.211 -3.02,0.519 -4.586,0.097 -0.059,0.133 -0.211,0.383 -0.305,0.535 0.782,0.368 2.731,1.02 4.91,0.653 -0.152,0.387 -0.324,1 -0.937,1.058 -1.414,0.114 -3.59,-0.347 -4.547,-0.921 -0.133,0.132 -0.285,0.324 -0.402,0.421 0.613,0.5 2.312,1.672 4.703,1.786 -0.172,0.347 -0.594,0.98 -1.281,0.847 -1.453,-0.308 -3.02,-0.98 -4.203,-2.019 -0.29,0.156 -0.383,0.23 -0.536,0.308 0.227,0.309 1.758,2.172 4.203,2.957 -0.628,0.442 -1.128,0.598 -1.757,0.289 -0.977,-0.48 -2.391,-1.535 -3.383,-2.863 -0.324,0.098 -0.422,0.117 -0.574,0.156 0.269,0.594 1.261,2.286 2.714,3.438 -0.957,0.23 -1.375,0.039 -1.718,-0.309 -0.879,-0.922 -1.856,-2.496 -2.008,-3.035 -0.305,0 -0.457,0 -0.707,-0.019 0.23,1.402 0.992,2.863 1.605,3.691 -0.574,0.113 -1.089,0.113 -1.183,-0.02 -0.574,-0.789 -1.242,-2.363 -1.414,-3.707 -0.344,0.02 -0.575,0.094 -0.653,0.114 -0.035,1.785 0.516,3.668 0.996,4.554 -0.324,0.246 -0.48,0.477 -0.687,0.766 -0.516,-0.805 -1.242,-2.859 -1.262,-4.879 -2.238,2.133 0.992,8.395 3.246,10.41 -0.554,0.196 -0.859,0.367 -1.222,0.461 -0.383,-0.191 -1.7,-2.226 -1.813,-2.379 -0.328,0.074 -0.402,0.074 -0.633,0.153 0.133,0.308 1.071,2.304 1.356,2.535 -0.188,0.097 -0.914,0.25 -1.223,0.289 -2.234,-6.781 -7.277,-11.774 -3.324,-16.52 0.039,-0.039 0.078,-0.078 0.117,-0.133 -0.019,0 -0.039,-0.019 -0.058,-0.019 -0.442,-0.117 -1.434,-0.406 -1.704,-0.481 0.27,-0.117 1.399,-2.363 1.262,-3.191 -0.035,-0.25 -0.859,-1.574 -1.566,-1.113 -0.039,0.019 0.191,-1.113 0.859,-1.172 0.402,-0.039 0.766,0.328 1.016,0.367 0.226,0.02 0.152,-0.098 0.172,-0.23 0.054,-0.039 0.093,0 0.132,0 3.364,0.941 2.848,3.781 3.153,4.761 -1.071,-0.019 -1.528,0.422 -1.739,0.77 0.02,0.113 0.02,0.211 0.02,0.211 2.348,-0.559 2.848,1.402 4.988,1.25 z m 1.012,18.707 c -0.23,0 -0.859,0 -1.031,0 0,-0.094 -0.594,-1.477 -0.653,-1.574 0.289,-0.039 1.11,0.078 1.223,0.289 0.137,0.23 0.422,1.074 0.461,1.285 z m -1.891,0.019 c -0.136,0 -0.785,0.02 -0.996,0 -0.039,-0.132 -0.476,-1.324 -0.781,-1.863 0.152,-0.019 1.07,-0.098 1.223,0.309 0.132,0.324 0.515,1.246 0.554,1.554 z m -3.691,-2.996 c 0.461,-0.058 1.035,-0.152 1.187,-0.172 0.133,0.27 0.344,1.422 0.364,1.575 -0.364,0.308 -1.016,1.574 -1.071,1.574 0.094,-0.805 -0.343,-2.688 -0.48,-2.977 z M 66,45.199 c -0.055,0.25 -0.191,2.613 -0.285,2.785 -0.211,-0.019 -0.785,-0.058 -1.07,-0.097 0.304,-1.325 1.453,-5.012 1.453,-5.012 0,0 1.699,3.285 2.175,5.051 -0.226,0.019 -1.011,0.078 -1.125,0.078 -0.019,-0.137 -0.46,-2.652 -0.421,-2.805 -0.266,0.02 -0.575,0 -0.727,0 z m -4.223,3.551 c 0.153,-0.133 1.016,-0.035 1.149,0.059 -0.289,0.386 -0.996,1.48 -1.031,1.769 -0.309,-0.195 -0.688,-0.5 -0.825,-0.617 0.078,-0.152 0.555,-1.055 0.707,-1.211 z m -1.375,0.789 c -0.152,-0.094 -0.726,-0.422 -0.8,-0.5 0.093,-0.113 0.207,-0.324 0.363,-0.5 0.094,-0.094 0.82,-0.074 1.203,0.078 -0.23,0.172 -0.613,0.711 -0.766,0.922 z m 2.082,-2.074 c 0.137,-0.078 0.996,-2.305 1.129,-2.594 -0.269,-0.059 -0.422,-0.133 -0.574,-0.172 -0.113,0.172 -1.336,2.113 -1.719,2.403 -0.324,-0.118 -0.746,-0.25 -1.148,-0.446 0.269,-0.074 3.937,-4.859 3.766,-8.679 0.171,0.519 1.433,3.476 1.433,3.476 0,0 -1.816,5.684 -1.891,6.223 -0.382,-0.059 -0.765,-0.153 -0.996,-0.211 z m 0.938,0.25 c 0.019,0 0.039,0 0.058,0.019 0,0 0,0 0,-0.019 0.114,0.019 0.762,0.097 1.165,0.172 -0.133,0.5 -0.497,1.941 -0.61,3.074 0,-0.02 -0.019,-0.078 -0.058,-0.152 0,0.035 -0.02,0.093 -0.02,0.152 -0.039,-0.172 -0.746,-1.766 -0.879,-1.902 0.039,-0.153 0.285,-1.247 0.344,-1.344 z m 1.605,-25.067 c -0.343,0.211 -0.726,0.364 -1.109,0.481 C 63.785,22.32 63.152,21.781 63,21.266 c 0.078,-0.02 0.152,-0.039 0.23,-0.059 0.442,0.652 1.434,0.731 1.797,1.441 z m -0.839,-1.863 c 0.035,-0.039 0.152,-0.117 0.207,-0.156 0.707,0.426 1.683,0.25 2.199,0.559 -0.231,0.328 -0.496,0.613 -0.785,0.882 -0.516,-0.769 -1.164,-0.902 -1.621,-1.285 z m 4.144,1.594 -0.477,0.172 c 0,0 0.247,0.73 0.325,1.211 -0.668,0.441 0.441,1 0.382,0.152 0.114,-0.059 0.899,-0.324 0.899,-0.324 l 0.019,-0.387 0.383,-0.094 v 0.383 l -0.402,0.098 c 0,0 0.019,0.711 0.019,1.015 -0.746,0.309 0.192,1.059 0.325,0.25 0.113,0 1.164,-0.058 1.164,-0.058 L 70.93,24.262 c 0,0 0.5,-0.02 0.519,-0.02 0.016,0 -1.472,1.746 -1.836,2.153 -0.82,-1.403 -2.504,-1.942 -2.578,-1.981 0.094,-0.191 1.106,-2.535 1.106,-2.535 z m -2.848,-4.035 c 0.344,-0.02 0.668,-0.02 1.016,-0.02 0.344,0 0.668,0 0.992,0.02 0,0.019 0,0.019 0,0.039 -0.765,0.039 -1.683,0.347 -2.043,0.347 0.016,-0.136 0.035,-0.269 0.035,-0.386 z m -0.343,1.383 c 0.707,0 1.453,-0.364 2.254,-0.364 -0.075,0.364 -0.188,0.711 -0.344,1.035 -0.86,-0.5 -1.602,-0.304 -2.043,-0.46 0.058,-0.075 0.094,-0.153 0.133,-0.211 z m -0.61,-1.344 c -0.039,1.094 -0.918,1.961 -2.008,1.961 -0.937,0 -1.699,-0.637 -1.929,-1.5 1.281,-0.231 2.597,-0.383 3.937,-0.461 z m -2.808,2.785 c 0.113,0.039 0.191,0.059 0.304,0.098 0.211,0.996 0.899,1.422 0.953,2.035 -0.152,0.019 -0.304,0.019 -0.457,0.019 -0.285,0 -0.554,-0.019 -0.82,-0.078 0.266,-0.769 0.035,-1.441 0.02,-2.074 z m -0.977,-0.461 c -0.152,0.844 0.285,1.691 0.059,2.305 -0.403,-0.153 -0.766,-0.344 -1.11,-0.574 0.575,-0.559 0.594,-1.403 0.879,-1.883 0.039,0.054 0.098,0.093 0.172,0.152 z m -0.801,-0.922 c -0.672,0.863 -0.5,1.613 -0.976,1.996 0,0 -0.02,0 -0.02,0.02 -0.285,-0.285 -0.535,-0.633 -0.746,-0.977 0.766,-0.289 1.09,-0.941 1.645,-1.211 0.039,0.039 0.058,0.114 0.097,0.172 z m -1.207,-0.539 c -0.187,0.192 -0.55,0.598 -0.914,0.692 -0.058,-0.133 -0.097,-0.286 -0.136,-0.442 0.343,-0.074 0.691,-0.172 1.05,-0.25 z m -9.246,9.336 c 0.746,0.48 2.828,1.402 4.68,1.363 0,-0.172 0,-0.402 0.039,-0.613 -1.473,-0.211 -3.668,-1.52 -4.051,-1.844 -0.402,-0.328 -0.344,-0.672 -0.094,-1.289 0.782,0.676 2.176,1.598 4.317,2.172 0.039,-0.152 0.152,-0.48 0.191,-0.613 -1.508,-0.637 -2.847,-1.75 -3.476,-2.613 -0.422,-0.559 0.054,-1.059 0.226,-1.344 0.328,0.824 2.238,2.594 3.672,3.09 0.113,-0.192 0.192,-0.286 0.324,-0.481 -1.492,-0.844 -2.562,-2.726 -2.808,-3.262 -0.25,-0.539 0.211,-0.98 0.554,-1.289 0.344,1.153 1.012,2.594 2.903,3.825 0.191,-0.231 0.304,-0.211 0.422,-0.387 -1.203,-1.094 -1.758,-3.149 -1.856,-3.781 -0.113,-0.75 0.344,-0.942 0.879,-1.192 0.078,2.168 0.918,4.36 3.363,5.395 0.957,0.406 0.805,1.672 -0.265,2.519 -1.473,1.172 -0.957,3.782 1.625,3.992 1.336,0.118 2.273,-1.093 4.336,-1.593 -0.25,0.25 -0.383,0.539 -0.801,0.961 0.152,0.058 0.418,0.172 0.668,0.172 -1.242,2.152 -0.785,4.457 -0.668,5.015 -0.172,-0.383 -0.344,-0.48 -0.481,-0.5 -0.019,2.016 -0.746,4.074 -1.261,4.879 -0.207,-0.289 -0.364,-0.519 -0.688,-0.769 0.481,-0.883 1.031,-2.766 0.996,-4.551 -0.078,-0.02 -0.308,-0.098 -0.652,-0.117 -0.172,1.347 -0.84,2.921 -1.414,3.711 -0.094,0.132 -0.61,0.132 -1.184,0.015 0.594,-0.844 1.375,-2.305 1.606,-3.687 -0.25,0.019 -0.403,0.019 -0.707,0.019 -0.153,0.52 -1.129,2.094 -2.008,3.035 -0.344,0.368 -0.781,0.539 -1.719,0.309 1.453,-1.152 2.445,-2.844 2.715,-3.438 -0.152,-0.039 -0.27,-0.058 -0.574,-0.156 -0.992,1.328 -2.406,2.383 -3.383,2.863 -0.629,0.309 -1.129,0.153 -1.758,-0.289 2.445,-0.785 3.977,-2.648 4.203,-2.957 -0.172,-0.078 -0.265,-0.152 -0.535,-0.308 -1.183,1.039 -2.75,1.691 -4.203,2.019 -0.687,0.153 -1.129,-0.48 -1.281,-0.847 2.39,-0.114 4.09,-1.305 4.703,-1.786 -0.117,-0.097 -0.289,-0.269 -0.402,-0.421 -0.957,0.574 -3.133,1.015 -4.547,0.921 -0.633,-0.039 -0.786,-0.671 -0.938,-1.058 2.18,0.348 4.129,-0.285 4.91,-0.652 -0.093,-0.172 -0.226,-0.403 -0.304,-0.54 -1.586,0.426 -3.86,0.118 -4.586,-0.093 -0.707,-0.192 -0.688,-0.653 -0.707,-1.192 0.707,0.27 3.285,0.789 4.949,0.383 -0.02,-0.094 -0.133,-0.574 -0.133,-0.633 -2.141,0.039 -4.148,-0.902 -4.551,-1.093 -0.398,-0.192 -0.343,-1.059 -0.246,-1.27 z M 48.02,38.977 c 1.109,-0.118 4.531,0.054 4.222,3.168 -1.355,0.554 -1.812,0.785 -1.812,0.785 0.82,-2.707 -1.242,-3.512 -2.543,-3.649 -0.477,-0.039 -0.422,-0.25 0.133,-0.304 z m 1.738,5.644 c 0.918,-0.652 4.09,-1.883 5.293,-2.207 0.633,-0.176 1.511,-0.652 2.14,-0.828 0.403,-0.113 0.805,0.019 1.012,0.25 0.059,0.078 0,0.309 0.098,0.387 0.094,0.074 1.301,0.922 1.242,1.246 -0.133,0.75 -0.324,0.808 -0.477,1.093 -0.363,0.711 -0.671,1.52 -1.359,2.75 -1.719,5.09 -4.719,2.266 -5.445,1.344 -0.438,0.711 -1.375,3.766 -1.95,4.801 1.95,-0.613 2.2,-2.035 2.219,-2.859 0.246,0.246 1.621,1.074 2.981,0.824 -0.84,1.152 -5.141,4.398 -2.637,9.297 0.055,-1.442 -0.098,-2.614 0.609,-4.762 0.766,-2.324 3.899,-3.785 4.567,-6.398 0,0 0.172,0.058 0.535,0.171 1.207,0.422 2.906,2.211 3.422,2.27 0.668,0.074 14.98,0.035 16.07,0.055 1.301,0.019 3.555,-1.285 6.02,-0.27 7.242,2.981 6.211,12.871 0.285,14.774 0.363,-0.653 0.672,-1.27 0.844,-1.731 -1.188,0.77 -1.493,0.637 -2.469,1.02 -0.246,0.097 -0.57,0.5 -0.457,1.172 0.133,0.808 0.363,1.652 -0.094,2.265 -0.363,0.461 -7.242,-0.172 -7.855,0.211 -0.84,0.52 -1.09,0.961 -2.407,0.961 0.094,-0.23 0.153,-0.805 -0.441,-0.75 -1.07,0.098 -0.402,1.652 -1.281,1.981 -0.207,0.078 -0.36,0 -0.477,0.039 -0.437,0.171 -0.476,0.711 -0.516,1.054 -0.265,0.02 -3.937,0.039 -4.335,0 0.417,-1.246 1.257,-1.976 1.488,-2.074 -0.172,-0.059 -0.285,0 -0.324,-0.309 1.203,-0.152 1.203,-0.824 1.91,-1.304 0.422,-0.289 0.976,-0.574 1.586,-0.961 0.554,-0.344 1.511,-0.883 2.027,-1.192 -5.961,-0.746 -5.484,-5.05 -4.359,-7.546 2.199,-0.348 2.332,-2.864 2.179,-3.438 -0.152,-0.598 -0.23,-1.578 -0.23,-2.75 -0.934,2.613 -1.813,2.555 -3.192,5.859 -1.585,3.805 -0.171,6.704 1.723,7.856 l -3.25,0.019 c 0.152,-2.726 -0.594,-3.32 -0.953,-3.918 -0.422,-0.652 0.035,-4.761 -0.613,-5.703 -0.25,-0.367 -1.528,-0.98 -2.008,-0.98 1.93,1.652 0.785,5.281 1.512,7.066 0.304,0.77 1.05,0.981 0.918,3.481 -0.805,0.074 -9.098,0.074 -9.536,0.093 0.723,-0.613 -0.441,-1.71 -1.281,0 -0.172,0.348 -0.269,0.461 -0.746,0.809 -0.437,-0.039 -3.707,0.039 -4.09,0 0.078,-0.5 1.203,-1.559 1.739,-1.883 -0.114,-0.117 -0.438,0.039 -0.364,-0.347 0.172,0 0.481,-0.059 0.938,-0.305 0.461,-0.25 0.441,-0.848 1.836,-1.039 -1.586,-0.633 -2.637,-3.094 -2.907,-4.688 -0.707,-1.093 -2.445,-3.918 -2.312,-6.492 3.289,0.039 4.148,-3.59 4.531,-4.59 0.379,-0.941 -1.051,-2.113 -1.683,-0.422 -0.457,1.227 -1.243,3.321 -2.676,3.516 0.078,-0.656 2.656,-5.555 3,-6.918 z m 40.875,26.684 c -0.555,-0.137 -0.992,-0.157 -1.453,-0.098 -0.344,-0.519 -2.332,-3.824 -2.657,-4.34 0.305,-0.176 0.938,-0.691 0.938,-0.691 0.363,0.515 2.848,4.648 3.172,5.129 z M 64.395,67.039 c 0,0 -0.418,5.207 -0.418,5.57 -0.344,-0.328 -0.727,-0.5 -1.129,-0.593 0.039,-0.446 0.382,-4.977 0.382,-4.977 z m -9.762,4.496 c -0.805,0.324 -2.067,0.211 -2.332,-0.019 0.304,-0.289 0.957,-0.887 0.898,-1.118 -0.441,-0.054 -1.472,0.329 -1.719,0.426 -0.25,-0.539 0.016,-1.211 0.571,-1.633 0.48,0.231 1.129,0.481 1.433,0.422 0.153,-0.402 -0.039,-0.941 -0.074,-1.133 0.227,-0.117 1.719,-0.269 2.176,0.04 -0.207,0.191 -0.859,0.746 -0.879,1.113 0.363,0 1.223,-0.211 1.684,-0.422 0.304,0.496 0.019,1.207 -0.536,1.648 -0.382,-0.23 -1.109,-0.421 -1.492,-0.402 -0.039,0.387 0.098,0.75 0.27,1.078 z M 42.84,50.77 c 0.058,-0.059 0.156,-0.098 0.23,-0.079 0.668,0.289 2.293,0.883 3.653,0.922 -0.157,0.481 -0.231,1.172 -0.211,1.5 -1.684,-0.25 -4.11,-1.961 -3.672,-2.343 z m -4.317,14.867 c 0.325,-1.231 1.758,-1.903 1.586,-1.961 -0.152,0 -0.343,0.039 -0.363,-0.211 0.442,-0.02 0.973,-0.633 1.375,-0.903 0.481,-0.308 1.586,-0.48 2.254,-0.671 0.672,-0.192 2.984,-1.614 4.379,-1.766 -0.039,0.652 1.012,3.07 1.586,3.648 -1.016,0.403 -4.301,0.403 -4.606,0.442 0.438,-0.52 -0.515,-1.344 -1.187,0.019 -0.188,0.383 -0.207,0.805 -0.781,1.403 -0.555,0.019 -3.344,-0.02 -4.243,0 z m 37.911,16.691 c -1.508,0 -19.336,0 -19.336,0 v -3.457 h -1.203 l 0.496,-2.266 c -5.715,0 -13.493,0 -13.493,0 v -3.457 h -1.375 l 4.7,-7.742 c 0.554,-0.039 0.707,-0.039 1.433,-0.078 -0.554,0.902 -4.797,7.856 -4.738,7.82 0,0 17.484,0 19.203,0 2.258,0 2.18,3.457 0.137,3.457 -0.442,0 -2.278,0 -4.645,0 l -0.496,2.266 c 0,0 17.485,0 19.203,0 2.235,-0.019 2.16,3.457 0.114,3.457 z m 13.949,-6.551 c -0.934,0 -8.141,0 -13.488,0 0.054,0.25 0.417,1.75 0.496,2.133 -0.422,-0.172 -0.977,-0.23 -1.262,-0.25 -0.094,-0.422 -0.402,-1.687 -0.438,-1.883 -2.695,0 -4.664,0 -4.664,0 V 72.32 c 0,0 17.485,0 19.203,0 2.274,0 2.2,3.457 0.153,3.457 z"
       style="fill:#ffffff;fill-opacity:1;fill-rule:nonzero;stroke:none"
       transform="scale(1.3333333)"
       clip-path="url(#clipPath83)" />
    <path
       id="path64"
       d="m 62.371,94.238 -2.234,2.555 c -0.059,0.059 -0.117,0.117 -0.192,0.172 -0.078,0.058 -0.152,0.078 -0.211,0.097 l 2.504,0.27 0.383,-3.516 c -0.019,0.075 -0.059,0.133 -0.098,0.211 -0.058,0.094 -0.113,0.172 -0.152,0.211 z"
       style="fill:#ffffff;fill-opacity:1;fill-rule:nonzero;stroke:none"
       transform="scale(1.3333333)"
       clip-path="url(#clipPath82)" />
    <path
       id="path65"
       d="M 66.613,0 C 37.969,0 14.75,23.359 14.75,52.172 c 0,28.812 23.219,52.172 51.863,52.172 28.645,0 51.86,-23.36 51.86,-52.172 C 118.473,23.359 95.277,0 66.613,0 Z m 47.676,46.352 -7.988,1.074 -0.172,-1.266 7.988,-1.078 z m -1.281,-6.649 c 0.117,0.442 0.137,0.887 0.019,1.309 -0.093,0.422 -0.304,0.785 -0.609,1.113 -0.309,0.309 -0.672,0.539 -1.109,0.652 -0.383,0.118 -0.766,0.118 -1.149,0 -0.363,-0.093 -0.687,-0.269 -0.953,-0.5 -0.269,-0.23 -0.441,-0.5 -0.516,-0.765 l -0.058,-0.157 c 0.019,0.176 0.019,0.309 0,0.422 -0.02,0.118 -0.078,0.231 -0.172,0.328 l -2.371,3.036 -0.266,-0.961 c -0.039,-0.172 -0.058,-0.325 -0.039,-0.461 0.02,-0.153 0.098,-0.289 0.211,-0.442 l 2.121,-2.726 -0.305,-1.133 -3.058,0.844 -0.344,-1.231 7.778,-2.133 z m -4.164,-10.601 -4.414,2.171 c -0.344,0.172 -0.633,0.403 -0.825,0.692 -0.187,0.285 -0.304,0.594 -0.324,0.941 -0.019,0.344 0.059,0.692 0.231,1.055 0.172,0.363 0.402,0.633 0.687,0.844 0.289,0.195 0.594,0.308 0.938,0.328 0.343,0.019 0.687,-0.059 1.031,-0.231 l 4.414,-2.172 0.555,1.153 -4.414,2.172 c -0.575,0.289 -1.149,0.402 -1.703,0.383 -0.551,-0.02 -1.067,-0.211 -1.547,-0.536 -0.457,-0.328 -0.84,-0.789 -1.125,-1.363 -0.289,-0.578 -0.422,-1.152 -0.383,-1.73 0.019,-0.579 0.211,-1.075 0.515,-1.536 0.325,-0.461 0.766,-0.847 1.336,-1.117 l 4.414,-2.168 z m -4.071,-6.243 0.668,0.903 -4.355,7.683 -0.516,-0.691 c -0.097,-0.137 -0.152,-0.27 -0.172,-0.442 -0.019,-0.156 0.02,-0.308 0.114,-0.441 l 0.687,-1.211 -2.312,-3.113 -1.356,0.328 c -0.152,0.039 -0.304,0.039 -0.461,-0.02 -0.152,-0.058 -0.265,-0.152 -0.359,-0.289 l -0.52,-0.691 z m -7.375,-6.222 0.879,-0.887 4.375,4.379 -0.879,0.887 -1.738,-1.731 -4.797,4.86 -0.898,-0.903 4.816,-4.859 z M 86.066,8.027 82.895,15.48 81.727,14.984 84.898,7.531 Z m -5.007,-1.879 1.203,0.403 -2.52,7.703 -1.207,-0.406 z M 71.484,4.055 74.582,4.59 c 0.727,0.137 1.375,0.422 1.93,0.883 0.554,0.461 0.953,1.019 1.203,1.691 0.25,0.672 0.305,1.383 0.191,2.113 -0.133,0.731 -0.422,1.383 -0.879,1.922 -0.457,0.555 -1.031,0.942 -1.699,1.192 -0.672,0.25 -1.379,0.304 -2.105,0.191 L 70.129,12.043 Z M 62.98,4.016 63.152,8.953 c 0.02,0.383 0.118,0.727 0.289,1.035 0.172,0.289 0.418,0.52 0.727,0.672 0.305,0.156 0.648,0.231 1.051,0.211 0.402,-0.019 0.746,-0.113 1.051,-0.285 0.304,-0.176 0.515,-0.426 0.668,-0.731 0.152,-0.308 0.23,-0.656 0.21,-1.058 L 66.977,3.859 68.258,3.824 68.43,8.758 c 0.019,0.637 -0.098,1.211 -0.344,1.711 -0.25,0.5 -0.633,0.902 -1.109,1.191 -0.477,0.289 -1.051,0.442 -1.704,0.461 -0.648,0.02 -1.222,-0.098 -1.718,-0.348 C 63.059,11.523 62.656,11.141 62.371,10.66 62.086,10.18 61.93,9.605 61.914,8.969 L 61.738,4.035 Z m -3.457,0.324 0.27,1.23 -2.391,0.52 1.434,6.703 -1.242,0.269 L 56.16,6.359 53.773,6.875 53.504,5.648 Z m -11.75,4.437 c 0.075,-0.382 0.247,-0.73 0.536,-1.035 0.285,-0.308 0.648,-0.539 1.086,-0.711 0.363,-0.136 0.746,-0.211 1.167,-0.211 0.418,0 0.801,0.075 1.126,0.25 l -0.075,0.461 c -0.019,0.133 -0.078,0.25 -0.133,0.364 -0.078,0.097 -0.171,0.171 -0.269,0.21 -0.094,0.04 -0.191,0.059 -0.285,0.04 -0.192,-0.04 -0.383,-0.059 -0.594,-0.04 -0.191,0.02 -0.363,0.059 -0.496,0.118 -0.324,0.132 -0.555,0.304 -0.707,0.535 -0.133,0.23 -0.172,0.5 -0.059,0.75 0.078,0.211 0.25,0.367 0.516,0.441 0.269,0.078 0.652,0.117 1.148,0.098 0.84,-0.059 1.528,0.058 2.043,0.308 0.516,0.247 0.879,0.653 1.09,1.207 0.172,0.442 0.211,0.887 0.133,1.329 -0.074,0.441 -0.285,0.824 -0.609,1.171 -0.325,0.344 -0.727,0.614 -1.243,0.805 -0.46,0.172 -0.957,0.25 -1.453,0.192 -0.496,-0.039 -0.972,-0.172 -1.414,-0.403 l 0.094,-0.539 c 0.02,-0.094 0.059,-0.172 0.137,-0.25 0.054,-0.074 0.152,-0.133 0.246,-0.172 0.137,-0.058 0.269,-0.058 0.422,-0.019 0.265,0.058 0.554,0.097 0.859,0.117 0.305,0 0.535,-0.02 0.727,-0.098 0.422,-0.152 0.707,-0.383 0.879,-0.672 0.171,-0.289 0.191,-0.613 0.058,-0.98 -0.098,-0.25 -0.289,-0.422 -0.574,-0.535 -0.285,-0.117 -0.707,-0.176 -1.262,-0.176 -0.82,0.02 -1.472,-0.074 -1.949,-0.305 C 48.441,10.816 48.117,10.469 47.926,9.988 47.734,9.547 47.695,9.164 47.773,8.777 Z m -15.554,9.969 c 0.133,-0.383 0.379,-0.746 0.707,-1.094 0.265,-0.269 0.609,-0.5 0.992,-0.652 0.383,-0.172 0.766,-0.25 1.144,-0.23 l 0.118,0.441 c 0.039,0.133 0.039,0.269 0.019,0.383 -0.039,0.117 -0.078,0.23 -0.172,0.308 -0.078,0.078 -0.152,0.118 -0.25,0.153 -0.191,0.039 -0.382,0.097 -0.554,0.195 -0.172,0.094 -0.305,0.191 -0.418,0.305 -0.25,0.25 -0.383,0.5 -0.422,0.769 -0.039,0.27 0.039,0.52 0.25,0.711 0.152,0.153 0.379,0.231 0.648,0.211 0.266,-0.019 0.629,-0.152 1.09,-0.363 0.746,-0.387 1.414,-0.559 1.988,-0.539 0.571,0.019 1.067,0.25 1.489,0.672 0.343,0.343 0.554,0.73 0.648,1.172 0.098,0.441 0.059,0.863 -0.094,1.324 -0.152,0.441 -0.422,0.867 -0.82,1.25 -0.363,0.343 -0.766,0.593 -1.262,0.769 -0.48,0.153 -0.976,0.231 -1.453,0.211 l -0.133,-0.539 c -0.019,-0.098 -0.019,-0.191 0.02,-0.289 0.035,-0.094 0.074,-0.172 0.152,-0.25 0.094,-0.094 0.227,-0.172 0.364,-0.191 0.265,-0.039 0.554,-0.133 0.82,-0.231 0.285,-0.113 0.496,-0.23 0.629,-0.383 0.328,-0.308 0.5,-0.636 0.535,-0.98 0.039,-0.348 -0.074,-0.652 -0.344,-0.922 -0.191,-0.191 -0.437,-0.289 -0.742,-0.269 -0.309,0.019 -0.727,0.136 -1.223,0.347 -0.746,0.344 -1.398,0.516 -1.914,0.496 -0.515,0 -0.972,-0.191 -1.316,-0.554 -0.305,-0.309 -0.496,-0.653 -0.574,-1.039 -0.079,-0.403 -0.059,-0.805 0.078,-1.192 z m -4.34,4.918 8.617,1.824 L 36,26.199 c -0.094,0.137 -0.211,0.231 -0.363,0.289 -0.153,0.059 -0.305,0.078 -0.457,0.039 l -1.356,-0.289 -2.258,3.172 0.707,1.188 c 0.079,0.136 0.137,0.289 0.118,0.445 0,0.152 -0.059,0.305 -0.153,0.441 l -0.5,0.711 -4.508,-7.59 z m -2.617,3.805 1.109,0.574 -1.109,2.191 6.078,3.114 -0.574,1.132 -6.078,-3.113 -1.106,2.192 -1.109,-0.579 z m -3.516,7.551 7.566,2.785 -0.437,1.207 -7.57,-2.785 z m -1.93,5.992 c 0.094,-0.387 0.246,-0.731 0.496,-1.098 0.231,-0.344 0.516,-0.613 0.84,-0.805 l 0.325,0.309 c 0.097,0.094 0.171,0.191 0.211,0.324 0.039,0.117 0.039,0.231 0.019,0.348 -0.019,0.094 -0.059,0.172 -0.133,0.269 -0.152,0.133 -0.269,0.286 -0.363,0.461 -0.098,0.172 -0.152,0.325 -0.191,0.481 -0.079,0.344 -0.059,0.633 0.058,0.883 0.113,0.25 0.305,0.402 0.59,0.48 0.211,0.055 0.441,0 0.652,-0.176 0.207,-0.172 0.457,-0.461 0.727,-0.883 0.437,-0.73 0.894,-1.23 1.394,-1.515 0.497,-0.289 1.032,-0.367 1.606,-0.231 0.457,0.114 0.859,0.325 1.164,0.633 0.305,0.309 0.516,0.711 0.629,1.172 0.098,0.461 0.098,0.961 -0.035,1.481 -0.117,0.48 -0.328,0.921 -0.653,1.324 -0.324,0.383 -0.707,0.711 -1.125,0.961 l -0.402,-0.387 c -0.078,-0.074 -0.113,-0.152 -0.133,-0.25 -0.019,-0.094 -0.019,-0.191 0,-0.305 0.035,-0.136 0.094,-0.269 0.207,-0.367 0.211,-0.191 0.403,-0.402 0.574,-0.652 0.172,-0.25 0.289,-0.461 0.325,-0.653 0.097,-0.441 0.078,-0.808 -0.055,-1.113 -0.137,-0.308 -0.402,-0.519 -0.785,-0.598 -0.266,-0.054 -0.516,0 -0.781,0.176 -0.25,0.172 -0.536,0.496 -0.864,0.957 -0.457,0.692 -0.894,1.192 -1.355,1.461 -0.438,0.27 -0.918,0.348 -1.414,0.231 -0.418,-0.094 -0.766,-0.289 -1.032,-0.555 -0.265,-0.289 -0.457,-0.617 -0.554,-1.02 -0.059,-0.441 -0.059,-0.882 0.058,-1.343 z m -1.089,7.758 c 0.039,-0.461 0.171,-0.883 0.402,-1.247 0.226,-0.367 0.555,-0.652 0.933,-0.847 0.383,-0.192 0.805,-0.285 1.262,-0.25 0.403,0.019 0.766,0.156 1.09,0.367 0.324,0.211 0.574,0.48 0.727,0.789 0.171,0.305 0.25,0.613 0.23,0.883 v 0.172 c 0.035,-0.172 0.074,-0.309 0.133,-0.403 0.058,-0.097 0.152,-0.191 0.266,-0.25 L 27,45.91 26.941,46.906 c -0.015,0.176 -0.054,0.328 -0.113,0.461 -0.074,0.137 -0.172,0.25 -0.344,0.348 l -2.902,1.883 -0.078,1.172 3.152,0.21 -0.074,1.286 -8.047,-0.516 z m -0.133,5.785 1.242,-0.137 0.398,3.805 2.067,-0.231 -0.324,-3.094 1.222,-0.132 0.324,3.089 2.254,-0.25 -0.402,-3.8 1.242,-0.137 0.535,5.09 -8.023,0.867 z m 2.867,14.347 c -0.059,-0.172 -0.059,-0.328 -0.02,-0.461 0.036,-0.152 0.133,-0.269 0.247,-0.382 l 4.3,-3.594 c 0.246,-0.211 0.535,-0.383 0.899,-0.52 l -0.02,-0.039 c -0.383,0.078 -0.726,0.098 -1.031,0.059 l -5.543,-0.672 c -0.172,-0.02 -0.305,-0.078 -0.422,-0.191 -0.113,-0.098 -0.187,-0.231 -0.246,-0.403 l -0.25,-0.828 8.734,1.094 0.325,1.078 -6.746,5.664 z m 1.164,2.614 7.336,-3.344 0.535,1.172 -7.336,3.344 z m 5.523,9.738 -0.535,-0.848 c -0.097,-0.133 -0.136,-0.265 -0.152,-0.402 -0.02,-0.133 0.016,-0.27 0.074,-0.442 l 2.656,-6.378 -0.019,-0.016 C 30,73.434 29.789,73.664 29.543,73.82 l -4.359,2.844 -0.688,-1.078 6.766,-4.418 0.535,0.828 c 0.039,0.055 0.058,0.133 0.058,0.231 0,0.093 -0.019,0.191 -0.058,0.285 l -2.867,6.84 0.019,0.019 c 0.172,-0.23 0.363,-0.441 0.613,-0.598 l 4.661,-3.035 0.687,1.078 z m 11.063,2.266 c -0.152,0.539 -0.457,1.039 -0.918,1.5 l -3.496,3.476 -0.899,-0.902 3.497,-3.477 c 0.289,-0.269 0.46,-0.578 0.554,-0.906 0.098,-0.324 0.098,-0.652 0,-0.996 -0.094,-0.328 -0.285,-0.637 -0.554,-0.922 -0.286,-0.289 -0.59,-0.481 -0.918,-0.578 -0.325,-0.094 -0.668,-0.094 -0.993,0 -0.324,0.097 -0.629,0.269 -0.918,0.558 l -3.496,3.477 -0.898,-0.902 3.496,-3.477 c 0.461,-0.461 0.957,-0.75 1.492,-0.906 0.535,-0.153 1.09,-0.153 1.625,0.019 0.535,0.157 1.031,0.481 1.488,0.942 0.461,0.461 0.766,0.961 0.918,1.5 0.192,0.5 0.192,1.035 0.02,1.594 z m 16.242,15.695 -1.183,-0.309 1.64,-6.203 c -0.055,0.094 -0.152,0.172 -0.246,0.231 l -0.594,0.343 c -0.093,0.059 -0.191,0.098 -0.285,0.098 -0.097,0.02 -0.172,0.02 -0.269,0 -0.153,-0.039 -0.266,-0.137 -0.344,-0.289 l -0.285,-0.539 2.465,-1.457 1.148,0.305 z m 8.981,-0.387 -1.106,-0.113 -0.191,1.707 -1.223,-0.133 0.188,-1.711 -3.688,-0.402 0.039,-1.02 c 0,-0.054 0.02,-0.113 0.059,-0.191 0.039,-0.074 0.074,-0.133 0.113,-0.192 l 3.687,-4.281 c 0.079,-0.097 0.153,-0.156 0.27,-0.215 0.113,-0.054 0.191,-0.074 0.266,-0.054 l 1.203,0.132 -0.551,5.129 1.105,0.118 z m 7.796,-0.461 c -0.21,0.637 -0.515,1.133 -0.953,1.5 -0.441,0.363 -0.976,0.555 -1.589,0.594 -0.629,0.039 -1.184,-0.094 -1.661,-0.383 -0.476,-0.308 -0.859,-0.75 -1.129,-1.363 -0.285,-0.617 -0.437,-1.344 -0.496,-2.192 -0.058,-0.863 0.02,-1.593 0.231,-2.246 0.211,-0.632 0.515,-1.132 0.953,-1.5 0.441,-0.363 0.976,-0.554 1.586,-0.593 0.633,-0.039 1.187,0.093 1.664,0.402 0.476,0.309 0.859,0.769 1.148,1.363 0.286,0.617 0.438,1.344 0.496,2.192 0.036,0.843 -0.039,1.593 -0.25,2.226 z m 7.512,0.328 -1.187,0.309 -0.418,-1.672 -3.614,0.902 -0.324,-0.961 C 74.18,97.215 74.18,97.156 74.18,97.082 c 0,-0.078 0.019,-0.156 0.039,-0.211 l 1.988,-5.285 c 0.035,-0.113 0.094,-0.211 0.172,-0.285 0.074,-0.078 0.152,-0.137 0.226,-0.156 l 1.168,-0.286 1.243,4.993 1.089,-0.27 0.305,1.191 -1.09,0.27 z M 66.613,88.82 C 46.512,88.82 30.152,72.379 30.152,52.152 30.152,31.926 46.531,15.5 66.613,15.5 c 20.102,0 36.461,16.445 36.461,36.672 0,20.226 -16.359,36.648 -36.461,36.648 z m 33.727,-2.535 c -0.133,0.387 -0.383,0.75 -0.727,1.078 -0.285,0.266 -0.609,0.477 -1.011,0.633 -0.383,0.172 -0.766,0.231 -1.149,0.211 L 97.34,87.766 c -0.039,-0.137 -0.039,-0.27 0,-0.387 0.039,-0.113 0.094,-0.231 0.172,-0.305 0.078,-0.078 0.152,-0.117 0.25,-0.156 0.191,-0.035 0.379,-0.094 0.55,-0.191 0.172,-0.094 0.329,-0.192 0.422,-0.286 0.25,-0.23 0.403,-0.5 0.442,-0.769 0.035,-0.27 -0.039,-0.52 -0.231,-0.731 -0.152,-0.171 -0.363,-0.23 -0.648,-0.211 -0.27,0.02 -0.633,0.133 -1.09,0.344 -0.766,0.367 -1.434,0.539 -2.008,0.5 -0.574,-0.039 -1.07,-0.269 -1.472,-0.691 -0.325,-0.344 -0.536,-0.75 -0.61,-1.172 -0.078,-0.441 -0.039,-0.863 0.113,-1.305 0.172,-0.441 0.442,-0.847 0.84,-1.23 0.364,-0.344 0.785,-0.594 1.262,-0.731 0.48,-0.152 0.977,-0.211 1.473,-0.172 l 0.133,0.539 c 0.019,0.094 0.019,0.192 -0.02,0.286 -0.035,0.097 -0.094,0.175 -0.172,0.25 -0.113,0.097 -0.226,0.156 -0.383,0.195 -0.265,0.035 -0.551,0.113 -0.82,0.23 -0.285,0.114 -0.496,0.231 -0.629,0.364 -0.324,0.308 -0.516,0.633 -0.555,0.961 -0.058,0.343 0.059,0.652 0.325,0.922 0.191,0.191 0.441,0.289 0.746,0.289 0.304,0 0.726,-0.118 1.222,-0.329 0.766,-0.328 1.395,-0.48 1.93,-0.46 0.516,0.019 0.957,0.21 1.316,0.578 0.29,0.304 0.481,0.652 0.555,1.035 0.059,0.383 0.02,0.769 -0.113,1.152 z m 2.715,-2.707 -6.192,-5.187 0.821,-0.981 6.191,5.188 z m 4.316,-6.187 c -0.059,0.406 -0.211,0.828 -0.457,1.23 -0.211,0.328 -0.48,0.613 -0.824,0.863 -0.344,0.25 -0.707,0.407 -1.07,0.461 l -0.208,-0.402 c -0.058,-0.113 -0.097,-0.25 -0.097,-0.363 0,-0.118 0.039,-0.231 0.097,-0.328 0.055,-0.079 0.114,-0.153 0.208,-0.192 0.191,-0.078 0.347,-0.191 0.5,-0.308 0.152,-0.133 0.265,-0.27 0.343,-0.383 0.192,-0.289 0.266,-0.578 0.246,-0.844 -0.019,-0.27 -0.152,-0.5 -0.398,-0.656 -0.191,-0.114 -0.422,-0.133 -0.672,-0.055 -0.266,0.074 -0.59,0.285 -0.992,0.574 -0.649,0.539 -1.262,0.864 -1.836,0.961 -0.57,0.098 -1.086,0 -1.586,-0.328 -0.398,-0.266 -0.687,-0.594 -0.879,-0.996 -0.191,-0.406 -0.246,-0.848 -0.191,-1.309 0.058,-0.461 0.23,-0.921 0.535,-1.382 0.269,-0.422 0.633,-0.75 1.07,-1.016 0.442,-0.27 0.899,-0.426 1.379,-0.52 l 0.246,0.5 c 0.039,0.094 0.059,0.192 0.039,0.286 -0.019,0.097 -0.039,0.195 -0.097,0.289 -0.075,0.117 -0.188,0.211 -0.325,0.269 -0.246,0.098 -0.515,0.25 -0.761,0.403 -0.25,0.175 -0.422,0.347 -0.536,0.5 -0.25,0.367 -0.343,0.73 -0.328,1.078 0.02,0.343 0.211,0.613 0.535,0.824 0.231,0.152 0.481,0.172 0.786,0.098 0.304,-0.079 0.668,-0.29 1.129,-0.598 0.668,-0.5 1.242,-0.805 1.757,-0.902 0.516,-0.098 0.993,-0.02 1.414,0.269 0.364,0.231 0.61,0.52 0.782,0.883 0.172,0.289 0.23,0.672 0.191,1.094 z m 4.492,-8.891 c -0.058,0.152 -0.152,0.266 -0.25,0.363 -0.093,0.078 -0.23,0.153 -0.402,0.192 l -6.742,1.402 v 0.02 c 0.324,-0.02 0.629,0.039 0.898,0.152 l 4.793,2 -0.476,1.172 -7.454,-3.113 0.364,-0.903 c 0.039,-0.078 0.078,-0.133 0.152,-0.191 0.078,-0.059 0.172,-0.098 0.27,-0.117 l 7.242,-1.497 0.019,-0.019 c -0.289,0 -0.574,-0.059 -0.843,-0.172 l -5.137,-2.152 0.476,-1.172 7.454,3.113 z m 1.203,-3.785 -1.222,-0.25 0.765,-3.746 -2.047,-0.422 -0.628,3.055 -1.207,-0.25 0.632,-3.055 -2.218,-0.461 -0.762,3.746 -1.223,-0.25 1.032,-5.016 7.89,1.653 z m -3.668,-9.777 5.196,0.078 -0.02,1.265 -8.062,-0.133 0.019,-0.98 c 0,-0.078 0.02,-0.152 0.078,-0.23 0.055,-0.079 0.114,-0.153 0.207,-0.211 l 6.172,-4.075 v -0.019 c -0.265,0.097 -0.55,0.156 -0.84,0.156 l -5.558,-0.098 0.019,-1.265 8.063,0.133 -0.02,1 c 0,0.171 -0.039,0.304 -0.093,0.421 -0.059,0.114 -0.176,0.231 -0.309,0.329 l -5.75,3.8 v 0.02 c 0.285,-0.133 0.59,-0.211 0.898,-0.191 z"
       style="fill:#ffffff;fill-opacity:1;fill-rule:nonzero;stroke:none"
       transform="scale(1.3333333)"
       clip-path="url(#clipPath81)" />
    <path
       id="path66"
       d="m 66.652,26.008 c -0.117,-0.02 -0.402,0.058 -0.23,0.172 0.133,0.097 0.266,0.519 0.516,0.558 0.132,0.02 0.039,-0.152 0.132,-0.172 0.098,0 0.231,0.289 0.325,0.192 0.117,-0.133 -0.325,-0.672 -0.743,-0.75 z"
       style="fill:#ffffff;fill-opacity:1;fill-rule:nonzero;stroke:none"
       transform="scale(1.3333333)"
       clip-path="url(#clipPath80)" />
    <path
       id="path67"
       d="m 57.5,44.027 c 0.113,-0.25 -0.059,-0.308 -0.098,-0.461 -0.039,-0.156 0.059,-0.25 -0.132,-0.328 -0.153,-0.058 -0.364,0.289 -0.344,0.672 0.019,0.289 0.437,0.422 0.574,0.117 z"
       style="fill:#ffffff;fill-opacity:1;fill-rule:nonzero;stroke:none"
       transform="scale(1.3333333)"
       clip-path="url(#clipPath79)" />
    <path
       id="path68"
       d="m 54.191,47.352 c 0.098,-0.25 0.039,-0.618 0.059,-0.77 0.059,-0.387 0.324,-0.789 0.113,-0.902 -0.226,-0.098 -0.265,0.382 -0.496,0.593 -0.191,0.192 -1.051,0.844 -0.555,1.442 0.192,0.211 0.727,-0.02 0.879,-0.363 z"
       style="fill:#ffffff;fill-opacity:1;fill-rule:nonzero;stroke:none"
       transform="scale(1.3333333)"
       clip-path="url(#clipPath78)" />
    <path
       id="path69"
       d="m 76.777,63.352 c -0.629,-0.868 -2.636,-4.379 -1.968,-6.571 0.554,-1.843 3.519,-2.152 5.523,-1.691 -2.809,-1.727 -6.402,-0.785 -6.82,1.844 -0.364,2.191 0.972,5.089 1.644,6.109 0.496,0.152 1.203,0.211 1.621,0.309 z"
       style="fill:#ffffff;fill-opacity:1;fill-rule:nonzero;stroke:none"
       transform="scale(1.3333333)"
       clip-path="url(#clipPath77)" />
    <path
       id="path70"
       d="m 57.117,64.348 c 1.336,-0.075 1.969,-0.996 3.172,-1.364 -1.394,0.176 -3.613,0.176 -4.07,0.25 -0.383,0.078 -2.293,0.828 -2.981,1.098 0.629,-0.039 3.364,0.035 3.879,0.016 z"
       style="fill:#ffffff;fill-opacity:1;fill-rule:nonzero;stroke:none"
       transform="scale(1.3333333)"
       clip-path="url(#clipPath76)" />
    <path
       id="path71"
       d="m 57.27,61.949 c -0.133,-0.672 -0.211,-0.922 -0.325,-1.363 -2.793,-1.309 -1.914,-5.555 0.649,-6.09 -4.969,0.039 -4.301,7.125 -0.324,7.453 z"
       style="fill:#ffffff;fill-opacity:1;fill-rule:nonzero;stroke:none"
       transform="scale(1.3333333)"
       clip-path="url(#clipPath75)" />
    <path
       id="path72"
       d="m 74.602,67.039 c 0.8,-0.059 2.082,-0.559 2.539,-1.094 -0.86,0.02 -3.192,-0.117 -3.438,-0.019 -0.805,0.211 -1.34,0.554 -2.219,1.074 0.364,-0.059 2.008,0.117 3.118,0.039 z"
       style="fill:#ffffff;fill-opacity:1;fill-rule:nonzero;stroke:none"
       transform="scale(1.3333333)"
       clip-path="url(#clipPath74)" />
    <path
       id="path73"
       d="m 83.105,52.785 c -0.078,-0.019 -0.421,0.153 -0.171,0.481 2.75,3.515 3.152,9.218 2.254,11.582 4.624,-3.399 3.246,-10.739 -2.083,-12.063 z"
       style="fill:#ffffff;fill-opacity:1;fill-rule:nonzero;stroke:none"
       transform="scale(1.3333333)"
       clip-path="url(#clipPath73)" />
  </g>
</svg>
